<?xml version="1.0" encoding="UTF-8"?>
<svg version="1.1" xmlns="http://www.w3.org/2000/svg" width="500" height="500">
<path d="M0 0 C16.17 0 32.34 0 49 0 C49 6.93 49 13.86 49 21 C47.28556781 22.71443219 44.99554759 22.23052967 42.65234375 22.31640625 C41.57275391 22.35830078 40.49316406 22.40019531 39.38085938 22.44335938 C38.24455078 22.48267578 37.10824219 22.52199219 35.9375 22.5625 C34.22723633 22.62727539 34.22723633 22.62727539 32.48242188 22.69335938 C29.65507805 22.79982839 26.82764262 22.90184207 24 23 C23.505 24.485 23.505 24.485 23 26 C32.9 25.67 42.8 25.34 53 25 C52.96045077 17.52071571 52.96045077 17.52071571 52.90991211 10.04150391 C52.90741455 9.11257324 52.90491699 8.18364258 52.90234375 7.2265625 C52.89710693 6.27346191 52.89187012 5.32036133 52.88647461 4.33837891 C53 2 53 2 54 0 C60.81761894 -0.0252689 67.63522589 -0.04283244 74.45288086 -0.05493164 C76.77417451 -0.05997333 79.09546497 -0.06680651 81.41674805 -0.07543945 C84.74528795 -0.08751225 88.07378602 -0.09322979 91.40234375 -0.09765625 C92.44712387 -0.10281754 93.49190399 -0.10797882 94.56834412 -0.11329651 C95.52926468 -0.11337204 96.49018524 -0.11344757 97.48022461 -0.11352539 C98.75596596 -0.11685631 98.75596596 -0.11685631 100.05747986 -0.12025452 C102 0 102 0 103 1 C103 16.84 103 32.68 103 49 C65.71 49 28.42 49 -10 49 C-10 49.99 -10 50.98 -10 52 C-9.28812027 51.99777939 -8.57624054 51.99555878 -7.8427887 51.99327087 C-1.14725765 51.97326747 5.54826511 51.95802562 12.24381924 51.94818783 C15.68640348 51.94296018 19.12896312 51.93586469 22.5715332 51.92456055 C26.52555043 51.91165765 30.47955756 51.90677082 34.43359375 51.90234375 C36.29605995 51.89460182 36.29605995 51.89460182 38.19615173 51.88670349 C39.33725906 51.88662796 40.47836639 51.88655243 41.65405273 51.88647461 C42.664431 51.884254 43.67480927 51.88203339 44.71580505 51.87974548 C47 52 47 52 48 53 C48.09899523 54.54955559 48.13079524 56.10353673 48.1328125 57.65625 C48.13410156 58.59597656 48.13539063 59.53570312 48.13671875 60.50390625 C48.13285156 61.49261719 48.12898438 62.48132813 48.125 63.5 C48.12886719 64.48871094 48.13273437 65.47742188 48.13671875 66.49609375 C48.13542969 67.43582031 48.13414062 68.37554687 48.1328125 69.34375 C48.13168457 70.21193359 48.13055664 71.08011719 48.12939453 71.97460938 C48 74 48 74 47 75 C44.51046303 75.10033866 42.04865047 75.13617943 39.55859375 75.12939453 C38.77976837 75.13114685 38.00094299 75.13289917 37.19851685 75.13470459 C34.61148889 75.13912349 32.02452871 75.13618499 29.4375 75.1328125 C27.64770494 75.13348553 25.85790998 75.13445554 24.06811523 75.13571167 C20.31200289 75.13718869 16.55591428 75.13503394 12.79980469 75.13037109 C7.97399507 75.1246738 3.14824105 75.12795278 -1.67756653 75.13394356 C-5.37488223 75.13754905 -9.07218464 75.13641064 -12.76950073 75.13381577 C-14.54938768 75.13314646 -16.32927582 75.13397503 -18.10916138 75.13629532 C-20.59233822 75.13882165 -23.07542374 75.13498154 -25.55859375 75.12939453 C-26.67293289 75.13243088 -26.67293289 75.13243088 -27.80978394 75.13552856 C-32.88573738 75.11426262 -32.88573738 75.11426262 -34 74 C-34.09822744 72.53194708 -34.1279837 71.0592254 -34.12939453 69.58789062 C-34.13412277 68.18138245 -34.13412277 68.18138245 -34.13894653 66.74645996 C-34.1369223 65.72669067 -34.13489807 64.70692139 -34.1328125 63.65625 C-34.13376923 62.61682251 -34.13472595 61.57739502 -34.13571167 60.50646973 C-34.13639363 58.30395446 -34.13453827 56.10143721 -34.13037109 53.89892578 C-34.12502308 50.51460281 -34.13031559 47.13041256 -34.13671875 43.74609375 C-34.13605797 41.61197887 -34.13477681 39.47786408 -34.1328125 37.34375 C-34.13483673 36.32398071 -34.13686096 35.30421143 -34.13894653 34.25354004 C-34.13579437 33.31586792 -34.13264221 32.3781958 -34.12939453 31.41210938 C-34.12859894 30.58239624 -34.12780334 29.75268311 -34.12698364 28.89782715 C-34 27 -34 27 -33 26 C-30.55169574 25.91156207 -28.13179401 25.88471248 -25.68359375 25.90234375 C-24.95253922 25.9037587 -24.22148468 25.90517365 -23.46827698 25.90663147 C-21.12464368 25.91224592 -18.78110461 25.92480078 -16.4375 25.9375 C-14.85221492 25.94251314 -13.26692834 25.94707637 -11.68164062 25.95117188 C-7.7877239 25.96222003 -3.89387795 25.97949428 0 26 C0 22.7 0 19.4 0 16 C-1.32 16 -2.64 16 -4 16 C-4 15.34 -4 14.68 -4 14 C-5.32 14.33 -6.64 14.66 -8 15 C-7.67 15.66 -7.34 16.32 -7 17 C-11.95 17 -16.9 17 -22 17 C-22 16.01 -22 15.02 -22 14 C-22.66 14 -23.32 14 -24 14 C-25.98 10.535 -25.98 10.535 -28 7 C-25.54101345 6.91923037 -23.08466258 6.85962857 -20.625 6.8125 C-19.92632812 6.78736328 -19.22765625 6.76222656 -18.5078125 6.73632812 C-16.4765625 6.70703125 -16.4765625 6.70703125 -13 7 C-12.01 8.485 -12.01 8.485 -11 10 C-6.545 9.505 -6.545 9.505 -2 9 C-2.33 10.32 -2.66 11.64 -3 13 C-2.34 13 -1.68 13 -1 13 C-0.505 6.565 -0.505 6.565 0 0 Z M76 22 C76 23.32 76 24.64 76 26 C77.32 26 78.64 26 80 26 C79.67 24.68 79.34 23.36 79 22 C78.01 22 77.02 22 76 22 Z " fill="#314560" transform="translate(160,233)"/>
<path d="M0 0 C7.59 0 15.18 0 23 0 C23 21.78 23 43.56 23 66 C24.98 66 26.96 66 29 66 C29 57.42 29 48.84 29 40 C36.59 40 44.18 40 52 40 C52 48.58 52 57.16 52 66 C53.65 66 55.3 66 57 66 C56.99476318 65.2479126 56.98952637 64.4958252 56.98413086 63.72094727 C56.96342773 60.33480658 56.95036123 56.94867916 56.9375 53.5625 C56.92912109 52.37849609 56.92074219 51.19449219 56.91210938 49.97460938 C56.90888672 48.84990234 56.90566406 47.72519531 56.90234375 46.56640625 C56.89710693 45.52427979 56.89187012 44.48215332 56.88647461 43.40844727 C57 41 57 41 58 40 C59.49870048 39.90168854 61.00198539 39.87201544 62.50390625 39.87060547 C63.94044556 39.86587723 63.94044556 39.86587723 65.40600586 39.86105347 C66.44764893 39.8630777 67.48929199 39.86510193 68.5625 39.8671875 C69.62412354 39.86623077 70.68574707 39.86527405 71.77954102 39.86428833 C74.02913472 39.86360636 76.27873037 39.86546181 78.52832031 39.86962891 C81.98507071 39.8749769 85.44169117 39.86968446 88.8984375 39.86328125 C91.07812529 39.86394203 93.257813 39.86522318 95.4375 39.8671875 C96.9999646 39.86415115 96.9999646 39.86415115 98.59399414 39.86105347 C99.55168701 39.86420563 100.50937988 39.86735779 101.49609375 39.87060547 C102.34357178 39.87140106 103.1910498 39.87219666 104.06420898 39.87301636 C106 40 106 40 107 41 C107 56.84 107 72.68 107 89 C71.69 89 36.38 89 0 89 C0 59.63 0 30.26 0 0 Z M80 63 C80.33 64.65 80.66 66.3 81 68 C81.99 67.67 82.98 67.34 84 67 C84 65.68 84 64.36 84 63 C82.68 63 81.36 63 80 63 Z " fill="#334762" transform="translate(267,193)"/>
<path d="M0 0 C0 1.98 0 3.96 0 6 C-0.8331457 6.00634791 -0.8331457 6.00634791 -1.68312263 6.01282406 C-15.45218083 6.11795985 -29.22120606 6.22679751 -42.99020576 6.33933926 C-49.64987137 6.39369077 -56.30954148 6.44688273 -62.96923828 6.49731445 C-95.9870524 6.74824173 -128.99154135 7.16004171 -162 8 C-162.33 6.35 -162.66 4.7 -163 3 C-147.24706509 2.26651702 -131.50596645 1.88533688 -115.73828125 1.71875 C-114.83742672 1.70920288 -113.93657219 1.69965576 -113.00841904 1.68981934 C-106.44315774 1.62160421 -99.87783751 1.56035045 -93.3125 1.5 C-85.87105223 1.43097797 -78.42964458 1.35887177 -70.98828125 1.28125 C-69.62257681 1.26717102 -69.62257681 1.26717102 -68.22928238 1.25280762 C-52.73505127 1.08848759 -37.24793739 0.75916808 -21.75886536 0.3302002 C-14.50438882 0.13002297 -7.25814342 -0.06276409 0 0 Z " fill="#283A4D" transform="translate(381,287)"/>
<path d="M0 0 C1.73311469 2.9147838 2.0743673 4.44224528 1.625 7.8125 C1.315625 8.8953125 1.315625 8.8953125 1 10 C1.66 10 2.32 10 3 10 C2.58846263 14.97093824 2.20399168 19.44508386 0 24 C-1.65 24 -3.3 24 -5 24 C-5 24.66 -5 25.32 -5 26 C-12.44613143 27.34274501 -17.84968433 26.36561846 -25 24 C-25.14308594 23.23945313 -25.28617188 22.47890625 -25.43359375 21.6953125 C-25.96536953 18.89624191 -25.96536953 18.89624191 -27.0625 15.875 C-28 13 -28 13 -28 10 C-27.34 10 -26.68 10 -26 10 C-26.309375 9.195625 -26.309375 9.195625 -26.625 8.375 C-27.18968371 4.79866981 -26.81793529 3.16455402 -25 0 C-17.80371588 -3.88459609 -7.11021332 -4.44388332 0 0 Z M-15 2 C-15 2.66 -15 3.32 -15 4 C-14.34 4 -13.68 4 -13 4 C-13 4.99 -13 5.98 -13 7 C-13.99 6.67 -14.98 6.34 -16 6 C-18.09350689 9.4019487 -18.17942163 12.05272412 -18 16 C-17.34 16 -16.68 16 -16 16 C-15.67 16.66 -15.34 17.32 -15 18 C-14.34 18.66 -13.68 19.32 -13 20 C-13.66 20 -14.32 20 -15 20 C-14.67 20.66 -14.34 21.32 -14 22 C-12.68 22 -11.36 22 -10 22 C-10.33 21.01 -10.66 20.02 -11 19 C-10.01 18.67 -9.02 18.34 -8 18 C-8 17.34 -8 16.68 -8 16 C-7.34 15.67 -6.68 15.34 -6 15 C-6.33 14.01 -6.66 13.02 -7 12 C-4.525 12.99 -4.525 12.99 -2 14 C-2 12.35 -2 10.7 -2 9 C-3.65 9.66 -5.3 10.32 -7 11 C-7 9.68 -7 8.36 -7 7 C-7.639375 6.87625 -8.27875 6.7525 -8.9375 6.625 C-9.618125 6.41875 -10.29875 6.2125 -11 6 C-11.33 5.34 -11.66 4.68 -12 4 C-11.34 4 -10.68 4 -10 4 C-10 3.34 -10 2.68 -10 2 C-11.65 2 -13.3 2 -15 2 Z M-21 3 C-20.67 3.99 -20.34 4.98 -20 6 C-19.34 5.34 -18.68 4.68 -18 4 C-18.99 3.67 -19.98 3.34 -21 3 Z M-6 4 C-5.34 4.66 -4.68 5.32 -4 6 C-4 5.34 -4 4.68 -4 4 C-4.66 4 -5.32 4 -6 4 Z M-22 9 C-22 10.65 -22 12.3 -22 14 C-21.34 14 -20.68 14 -20 14 C-19.67 13.01 -19.34 12.02 -19 11 C-19.99 10.34 -20.98 9.68 -22 9 Z M-24 16 C-23 18 -23 18 -23 18 Z M-20 18 C-20 18.99 -20 19.98 -20 21 C-19.34 20.34 -18.68 19.68 -18 19 C-18.66 18.67 -19.32 18.34 -20 18 Z M-6 18 C-6 18.66 -6 19.32 -6 20 C-5.34 20 -4.68 20 -4 20 C-4 19.34 -4 18.68 -4 18 C-4.66 18 -5.32 18 -6 18 Z " fill="#686F79" transform="translate(250,204)"/>
<path d="M0 0 C3.05232256 0.43514516 6.01291052 1.24686671 9 2 C9.969375 2.185625 10.93875 2.37125 11.9375 2.5625 C14.52574608 4.36642909 14.56321007 5.35608886 15.25 8.375 C15.50759463 9.91541589 15.75776896 11.45709358 16 13 C16.31935985 14.33674911 16.64814257 15.67143489 17 17 C16.34 17 15.68 17 15 17 C15 18.98 15 20.96 15 23 C14.34 23 13.68 23 13 23 C13.33 24.32 13.66 25.64 14 27 C9.47618873 29.04301154 4.83628305 30.00956295 0 31 C0 30.34 0 29.68 0 29 C-0.886875 29.04125 -1.77375 29.0825 -2.6875 29.125 C-8.24181963 28.91540303 -8.24181963 28.91540303 -11 27 C-12.06034138 24.05524758 -12.51598433 21.0829694 -13 18 C-13.31517578 16.99259766 -13.31517578 16.99259766 -13.63671875 15.96484375 C-14.09603578 13.48058069 -13.55901599 12.23613022 -12.5625 9.9375 C-11.42293082 7.27509847 -11 5.97307912 -11 3 C-10.28972656 2.86722656 -9.57945312 2.73445312 -8.84765625 2.59765625 C-7.92855469 2.42105469 -7.00945312 2.24445313 -6.0625 2.0625 C-5.14597656 1.88847656 -4.22945313 1.71445313 -3.28515625 1.53515625 C-1.04710156 1.22285012 -1.04710156 1.22285012 0 0 Z M-1 6 C-0.67 6.66 -0.34 7.32 0 8 C1.32 7.34 2.64 6.68 4 6 C2.35 6 0.7 6 -1 6 Z M-7 7 C-7 7.66 -7 8.32 -7 9 C-6.01 9 -5.02 9 -4 9 C-4 8.34 -4 7.68 -4 7 C-4.99 7 -5.98 7 -7 7 Z M8 7 C8 7.66 8 8.32 8 9 C8.66 9 9.32 9 10 9 C10 8.34 10 7.68 10 7 C9.34 7 8.68 7 8 7 Z M-4 11 C-4.37052339 16.17735677 -4.37052339 16.17735677 -3 21 C-1.68 21 -0.36 21 1 21 C1 21.66 1 22.32 1 23 C0.34 23 -0.32 23 -1 23 C-1 23.66 -1 24.32 -1 25 C0.65 25 2.3 25 4 25 C3.34 23.68 2.68 22.36 2 21 C3.32 21 4.64 21 6 21 C7.62651522 17.74696956 7.11453156 14.60774398 7 11 C5.99530377 9.7754822 5.99530377 9.7754822 3.96875 9.8671875 C3.1540625 9.86976563 2.339375 9.87234375 1.5 9.875 C0.6853125 9.87242187 -0.129375 9.86984375 -0.96875 9.8671875 C-2.99530377 9.7754822 -2.99530377 9.7754822 -4 11 Z M10 12 C9.67 13.65 9.34 15.3 9 17 C9.99 17.495 9.99 17.495 11 18 C11 16.02 11 14.04 11 12 C10.67 12 10.34 12 10 12 Z M-9 13 C-8.67 14.65 -8.34 16.3 -8 18 C-7.34 17.67 -6.68 17.34 -6 17 C-6 15.68 -6 14.36 -6 13 C-6.99 13 -7.98 13 -9 13 Z M8 21 C8 21.99 8 22.98 8 24 C8.66 24 9.32 24 10 24 C9.67 23.01 9.34 22.02 9 21 C8.67 21 8.34 21 8 21 Z M-7 22 C-6.67 22.66 -6.34 23.32 -6 24 C-5.67 23.34 -5.34 22.68 -5 22 C-5.66 22 -6.32 22 -7 22 Z " fill="#525965" transform="translate(306,201)"/>
<path d="M0 0 C1.71206496 0.00373681 3.42413208 0.00658062 5.13619995 0.00857544 C9.61106418 0.01615938 14.08579562 0.03576198 18.56060791 0.0579834 C23.13934534 0.07855559 27.71810453 0.08760132 32.296875 0.09765625 C41.25787038 0.11901354 50.21876784 0.15308511 59.1796875 0.1953125 C59.1796875 1.5153125 59.1796875 2.8353125 59.1796875 4.1953125 C54.30824238 4.98422131 49.63591365 5.32372769 44.703125 5.3371582 C43.99158264 5.34063263 43.28004028 5.34410706 42.54693604 5.34768677 C41.01431036 5.35499217 39.48167447 5.36036506 37.94903564 5.36397743 C35.51851024 5.37120127 33.08817997 5.38690905 30.65771484 5.40531921 C23.75165391 5.45752743 16.84570744 5.50577414 9.93945312 5.52124023 C5.7036432 5.53134414 1.4683374 5.56071872 -2.76727295 5.60256004 C-4.37469667 5.61482983 -5.98219165 5.61999868 -7.58966064 5.61776161 C-9.84156867 5.61539754 -12.09203726 5.63765228 -14.34375 5.6652832 C-15.62169434 5.67114944 -16.89963867 5.67701569 -18.21630859 5.68305969 C-22.65176639 6.31349067 -25.04284657 7.84240961 -28.8203125 10.1953125 C-29.4803125 10.1953125 -30.1403125 10.1953125 -30.8203125 10.1953125 C-31.2225 11.46375 -31.2225 11.46375 -31.6328125 12.7578125 C-32.868172 16.33385317 -34.2973005 19.73392158 -35.8203125 23.1953125 C-36.8103125 22.8653125 -37.8003125 22.5353125 -38.8203125 22.1953125 C-39.34838544 16.28089556 -38.73392721 12.84139468 -35.29296875 7.953125 C-26.86994748 -2.10087917 -11.86006292 -0.07651514 0 0 Z " fill="#38485A" transform="translate(161.8203125,202.8046875)"/>
<path d="M0 0 C0 1.98 0 3.96 0 6 C-31.68 6 -63.36 6 -96 6 C-96 5.67 -96 5.34 -96 5 C-84.12 5 -72.24 5 -60 5 C-60 4.34 -60 3.68 -60 3 C-53.40514687 1.49146986 -47.12981412 0.68149862 -40.37109375 0.5859375 C-39.05927879 0.55688828 -39.05927879 0.55688828 -37.72096252 0.5272522 C-34.95990339 0.46818469 -32.19879671 0.42146936 -29.4375 0.375 C-27.58396779 0.33673269 -25.73045169 0.2976762 -23.87695312 0.2578125 C-15.91653043 0.09331727 -7.96231303 -0.01890931 0 0 Z " fill="#30445C" transform="translate(381,287)"/>
<path d="M0 0 C-0.875 4.875 -0.875 4.875 -2 6 C-3.81055025 6.09376053 -5.62477201 6.1174411 -7.43774414 6.11352539 C-9.17943626 6.11341209 -9.17943626 6.11341209 -10.95631409 6.11329651 C-12.85159096 6.10555458 -12.85159096 6.10555458 -14.78515625 6.09765625 C-16.07111191 6.0962413 -17.35706757 6.09482635 -18.68199158 6.09336853 C-22.10643443 6.08954418 -25.53083509 6.07971462 -28.95526123 6.06866455 C-32.44738189 6.05844864 -35.93950934 6.05387053 -39.43164062 6.04882812 C-46.28777778 6.03809227 -53.14388687 6.02101684 -60 6 C-59.6875 4.0625 -59.6875 4.0625 -59 2 C-56.20032126 1.06677375 -54.39114051 0.85101036 -51.48779297 0.79467773 C-50.12024368 0.7647599 -50.12024368 0.7647599 -48.72506714 0.73423767 C-47.24854172 0.70916893 -47.24854172 0.70916893 -45.7421875 0.68359375 C-44.72456329 0.66281265 -43.70693909 0.64203156 -42.65847778 0.62062073 C-39.39738765 0.55520923 -36.13621377 0.49638837 -32.875 0.4375 C-30.70051268 0.39428862 -28.52603334 0.3506735 -26.3515625 0.30664062 C-17.56644118 0.13352879 -8.78711239 -0.0264706 0 0 Z " fill="#606C7C" transform="translate(347,297)"/>
<path d="M0 0 C16.17 0 32.34 0 49 0 C49 6.93 49 13.86 49 21 C48.67 21 48.34 21 48 21 C48 14.4 48 7.8 48 1 C44.77476562 1.08378906 41.54953125 1.16757813 38.2265625 1.25390625 C35.11233363 1.33125022 31.99806611 1.40680183 28.88378906 1.48217773 C26.71479666 1.53563881 24.54584956 1.59097127 22.37695312 1.64819336 C19.26442231 1.72998976 16.1517921 1.80511587 13.0390625 1.87890625 C12.065065 1.90594131 11.0910675 1.93297638 10.08755493 1.96083069 C8.73638077 1.99097511 8.73638077 1.99097511 7.35791016 2.02172852 C6.16544174 2.05170677 6.16544174 2.05170677 4.94888306 2.08229065 C3 2 3 2 1 1 C1 9.58 1 18.16 1 27 C-4.94 27 -10.88 27 -17 27 C-17 26.67 -17 26.34 -17 26 C-11.39 26 -5.78 26 0 26 C0 22.7 0 19.4 0 16 C-1.32 16 -2.64 16 -4 16 C-4 15.34 -4 14.68 -4 14 C-5.32 14.33 -6.64 14.66 -8 15 C-7.67 15.66 -7.34 16.32 -7 17 C-11.95 17 -16.9 17 -22 17 C-22 16.01 -22 15.02 -22 14 C-22.66 14 -23.32 14 -24 14 C-25.98 10.535 -25.98 10.535 -28 7 C-25.54101345 6.91923037 -23.08466258 6.85962857 -20.625 6.8125 C-19.92632812 6.78736328 -19.22765625 6.76222656 -18.5078125 6.73632812 C-16.4765625 6.70703125 -16.4765625 6.70703125 -13 7 C-12.01 8.485 -12.01 8.485 -11 10 C-6.545 9.505 -6.545 9.505 -2 9 C-2.33 10.32 -2.66 11.64 -3 13 C-2.34 13 -1.68 13 -1 13 C-0.67 8.71 -0.34 4.42 0 0 Z " fill="#697480" transform="translate(160,233)"/>
<path d="M0 0 C2.75 2.5 2.75 2.5 5 5 C7.32357511 5.18490007 7.32357511 5.18490007 10 3 C16.06706793 2.45829751 16.06706793 2.45829751 18.9375 4.125 C20.48138276 6.84949899 20.3267107 8.92891945 20 12 C18 14 18 14 14.875 14.125 C13.92625 14.08375 12.9775 14.0425 12 14 C12 12.02 12 10.04 12 8 C12.99 7.67 13.98 7.34 15 7 C15.33 7.33 15.66 7.66 16 8 C16 7.34 16 6.68 16 6 C11.52271001 7.193944 9.583339 8.18649957 7 12 C6.01 12.33 5.02 12.66 4 13 C2.31288577 14.6459651 0.6454378 16.31237149 -1 18 C-3.40545638 19.20272819 -4.94996953 19.10071472 -7.625 19.0625 C-8.85089844 19.04896484 -8.85089844 19.04896484 -10.1015625 19.03515625 C-10.72804688 19.02355469 -11.35453125 19.01195312 -12 19 C-12 18.34 -12 17.68 -12 17 C-11.39671875 16.87625 -10.7934375 16.7525 -10.171875 16.625 C-5.18775833 15.39112026 -5.18775833 15.39112026 -1.51171875 12.01953125 C-0.54708737 10.03765223 0.29138248 8.08620961 1 6 C-0.32 5.67 -1.64 5.34 -3 5 C-3.33 5.66 -3.66 6.32 -4 7 C-3.01 7 -2.02 7 -1 7 C-1 7.99 -1 8.98 -1 10 C-3.64 10 -6.28 10 -9 10 C-9.33 7.69 -9.66 5.38 -10 3 C-6.70681908 -0.03985931 -4.44506654 -0.72572515 0 0 Z " fill="#4A5668" transform="translate(357,190)"/>
<path d="M0 0 C0.969375 0.185625 1.93875 0.37125 2.9375 0.5625 C5.52574608 2.36642909 5.56321007 3.35608886 6.25 6.375 C6.50759463 7.91541589 6.75776896 9.45709358 7 11 C7.31935985 12.33674911 7.64814257 13.67143489 8 15 C7.34 15 6.68 15 6 15 C6 16.98 6 18.96 6 21 C5.34 21 4.68 21 4 21 C3.67 21.66 3.34 22.32 3 23 C2.67 22.01 2.34 21.02 2 20 C2.66 20 3.32 20 4 20 C4 19.34 4 18.68 4 18 C2.35 18.33 0.7 18.66 -1 19 C-1 20.32 -1 21.64 -1 23 C-1.99 23 -2.98 23 -4 23 C-4.66 21.68 -5.32 20.36 -6 19 C-5.01 19 -4.02 19 -3 19 C-3 15.7 -3 12.4 -3 9 C-6.3 8.67 -9.6 8.34 -13 8 C-14 4 -14 4 -14 0 C-9.03209925 -2.88458753 -5.18559667 -1.47756566 0 0 Z M-10 4 C-9.67 4.66 -9.34 5.32 -9 6 C-7.68 5.34 -6.36 4.68 -5 4 C-6.65 4 -8.3 4 -10 4 Z M-1 5 C-1 5.66 -1 6.32 -1 7 C-0.34 7 0.32 7 1 7 C1 6.34 1 5.68 1 5 C0.34 5 -0.32 5 -1 5 Z M1 10 C0.67 11.65 0.34 13.3 0 15 C0.99 15.495 0.99 15.495 2 16 C2 14.02 2 12.04 2 10 C1.67 10 1.34 10 1 10 Z " fill="#4F5662" transform="translate(315,203)"/>
<path d="M0 0 C-3 2 -3 2 -5.625 2.9375 C-6.40875 3.288125 -7.1925 3.63875 -8 4 C-8.33 4.99 -8.66 5.98 -9 7 C-6.69 7 -4.38 7 -2 7 C-1.75 9.8125 -1.75 9.8125 -2 13 C-3.625 14.9375 -3.625 14.9375 -6 16 C-9 16 -9 16 -12 15 C-14.375 12.4375 -14.375 12.4375 -16 10 C-16.66 10.66 -17.32 11.32 -18 12 C-20.931661 12.27920581 -23.15465293 12.47713387 -26 12 C-28 10.25 -28 10.25 -29 8 C-29 6.68 -29 5.36 -29 4 C-28.34 4 -27.68 4 -27 4 C-27 3.34 -27 2.68 -27 2 C-25.02 2 -23.04 2 -21 2 C-20.4465236 4.07553648 -20 5.84365964 -20 8 C-19.51789063 7.566875 -19.03578125 7.13375 -18.5390625 6.6875 C-17.90742188 6.130625 -17.27578125 5.57375 -16.625 5 C-15.99851563 4.443125 -15.37203125 3.88625 -14.7265625 3.3125 C-13 2 -13 2 -11 2 C-11 1.34 -11 0.68 -11 0 C-7.18243176 -1.37432457 -3.92744671 -0.67975039 0 0 Z M-25 6 C-24.67 6.66 -24.34 7.32 -24 8 C-23.67 7.34 -23.34 6.68 -23 6 C-23.66 6 -24.32 6 -25 6 Z M-11 8 C-10 10 -10 10 -10 10 Z " fill="#676F7D" transform="translate(159,220)"/>
<path d="M0 0 C0.33 0.66 0.66 1.32 1 2 C35.155 2.495 35.155 2.495 70 3 C70 3.33 70 3.66 70 4 C68.63269997 4.00546844 68.63269997 4.00546844 67.23777771 4.01104736 C58.63079718 4.04897612 50.02419369 4.10588437 41.41747952 4.18390274 C36.99306736 4.22334546 32.56885327 4.25554955 28.14428711 4.27099609 C23.87113195 4.28618397 19.59852143 4.32066682 15.32560921 4.36830902 C13.6986573 4.38310095 12.07162762 4.39103976 10.44460869 4.39188385 C8.15836987 4.39426199 5.87362597 4.42140626 3.58764648 4.45410156 C2.28858871 4.46298401 0.98953094 4.47186646 -0.34889221 4.48101807 C-4.81439047 5.11576047 -7.20075203 6.62951096 -11 9 C-11.66 9 -12.32 9 -13 9 C-13.4021875 10.2684375 -13.4021875 10.2684375 -13.8125 11.5625 C-15.0478595 15.13854067 -16.476988 18.53860908 -18 22 C-18.99 21.67 -19.98 21.34 -21 21 C-21.52813124 15.08493013 -20.89884301 11.66823256 -17.49609375 6.76171875 C-12.47582282 0.85012034 -7.33036436 -0.16659919 0 0 Z " fill="#CDD1D5" transform="translate(144,204)"/>
<path d="M0 0 C2.64 0 5.28 0 8 0 C7.01 0.495 7.01 0.495 6 1 C5.67 1.66 5.34 2.32 5 3 C4.34 3 3.68 3 3 3 C3 17.19 3 31.38 3 46 C12.52658811 45.67374032 12.52658811 45.67374032 22.05297852 45.34179688 C47.3239 44.5016 47.3239 44.5016 58 46 C58 46.33 58 46.66 58 47 C38.86 47 19.72 47 0 47 C0 31.49 0 15.98 0 0 Z " fill="#657380" transform="translate(126,260)"/>
<path d="M0 0 C2.96175123 0.61277612 4.38058783 1.25372522 7 3 C7.40843923 5.71203652 7.13336867 8.2437142 7 11 C7.66 11 8.32 11 9 11 C9 15.62 9 20.24 9 25 C1.5 22 1.5 22 -1 19 C-1.43007011 14.96809272 -1.28578123 11.03904135 -1 7 C-0.34 7 0.32 7 1 7 C0.67 4.69 0.34 2.38 0 0 Z " fill="#818894" transform="translate(366,205)"/>
<path d="M0 0 C26.4 0 52.8 0 80 0 C78.68 0.33 77.36 0.66 76 1 C76 1.66 76 2.32 76 3 C70.8227656 3.21757569 65.64530896 3.41432679 60.46655273 3.59204102 C58.70592239 3.65536605 56.94548496 3.72432054 55.18530273 3.79907227 C52.65117956 3.90570439 50.11704633 3.99189281 47.58203125 4.07421875 C46.79850784 4.11157639 46.01498444 4.14893402 45.2077179 4.18742371 C40.56949702 4.31426448 37.71999653 3.83289553 34 1 C33.67 1.66 33.34 2.32 33 3 C33 2.34 33 1.68 33 1 C22.11 1 11.22 1 0 1 C0 0.67 0 0.34 0 0 Z " fill="#556274" transform="translate(245,289)"/>
<path d="M0 0 C13.2 0 26.4 0 40 0 C40.495 1.485 40.495 1.485 41 3 C37.66844749 4.66577625 33.93463941 4.12007856 30.2734375 4.09765625 C28.97921371 4.09553383 28.97921371 4.09553383 27.65884399 4.09336853 C24.8975277 4.08776188 22.13629188 4.07520827 19.375 4.0625 C17.5052095 4.05748586 15.63541774 4.0529228 13.765625 4.04882812 C9.17705223 4.03779029 4.58853977 4.0205212 0 4 C0 2.68 0 1.36 0 0 Z " fill="#7D838F" transform="translate(167,223)"/>
<path d="M0 0 C6.93 0 13.86 0 21 0 C21 15.51 21 31.02 21 47 C1.86 47 -17.28 47 -37 47 C-37 46.67 -37 46.34 -37 46 C-10.27 45.505 -10.27 45.505 17 45 C18.71452086 39.85643743 19.30736221 36.08721976 19.30078125 30.828125 C19.30720894 29.68268219 19.30720894 29.68268219 19.31376648 28.51409912 C19.31948017 26.91061389 19.32003201 25.30710276 19.31567383 23.70361328 C19.31249143 21.24337356 19.33608509 18.78431202 19.36132812 16.32421875 C19.36359911 14.76302235 19.36430555 13.20182272 19.36328125 11.640625 C19.372491 10.90418762 19.38170074 10.16775024 19.39118958 9.40899658 C19.40524946 7.12579998 19.40524946 7.12579998 19 4 C15.27933528 1.51955685 12.13459526 1.55618827 7.8125 1.375 C6.68811523 1.31699219 6.68811523 1.31699219 5.54101562 1.2578125 C3.69440801 1.16371784 1.8472381 1.08077681 0 1 C0 0.67 0 0.34 0 0 Z " fill="#303F54" transform="translate(241,234)"/>
<path d="M0 0 C2.31 0 4.62 0 7 0 C7 0.66 7 1.32 7 2 C17.89 2 28.78 2 40 2 C40 2.99 40 3.98 40 5 C27.33333333 5 14.66666667 5 2 5 C1.34 4.34 0.68 3.68 0 3 C0 2.01 0 1.02 0 0 Z " fill="#616B77" transform="translate(148,195)"/>
<path d="M0 0 C4.95 0 9.9 0 15 0 C16.88343932 3.76687864 17.22057835 5.02958963 17 9 C17.66 9.33 18.32 9.66 19 10 C14.71 10 10.42 10 6 10 C6 9.01 6 8.02 6 7 C5.34 7 4.68 7 4 7 C2.02 3.535 2.02 3.535 0 0 Z " fill="#5A6679" transform="translate(132,240)"/>
<path d="M0 0 C6.93 0 13.86 0 21 0 C20.67 1.32 20.34 2.64 20 4 C20 3.34 20 2.68 20 2 C17.37461716 2.14053872 14.74982573 2.28718947 12.125 2.4375 C11.00544922 2.49647461 11.00544922 2.49647461 9.86328125 2.55664062 C5.80013136 2.71573624 5.80013136 2.71573624 2 4 C2.00222061 4.94547195 2.00444122 5.89094391 2.00672913 6.86506653 C2.02698495 15.76739732 2.04198394 24.66972344 2.05181217 33.57207203 C2.05703478 38.14905061 2.06412118 42.72601062 2.07543945 47.30297852 C2.08629038 51.71849946 2.09228154 56.13400251 2.09487724 60.54953575 C2.0967275 62.2356666 2.10034049 63.92179645 2.10573006 65.60791969 C2.11296972 67.96625524 2.1139897 70.32451649 2.11352539 72.68286133 C2.11712067 73.38273163 2.12071594 74.08260193 2.12442017 74.80368042 C2.11797142 77.82289873 1.96351769 80.10944692 1 83 C0.34 83 -0.32 83 -1 83 C-0.67 55.61 -0.34 28.22 0 0 Z " fill="#2D3C50" transform="translate(268,194)"/>
<path d="M0 0 C0.99 0 1.98 0 3 0 C3.02934711 3.49998201 3.04691445 6.99993179 3.0625 10.5 C3.07087891 11.48226563 3.07925781 12.46453125 3.08789062 13.4765625 C3.10659124 19.08674757 2.838879 24.45150899 2 30 C0.68 30 -0.64 30 -2 30 C-2.34615385 4.69230769 -2.34615385 4.69230769 0 0 Z " fill="#717C87" transform="translate(121,269)"/>
<path d="M0 0 C2.31 0 4.62 0 7 0 C6.34 0.33 5.68 0.66 5 1 C5.99 2.98 5.99 2.98 7 5 C-24.35 5 -55.7 5 -88 5 C-88 4.67 -88 4.34 -88 4 C-66.95795174 3.29971587 -45.92928465 2.8933309 -24.875 2.875 C-23.85919861 2.87250244 -22.84339722 2.87000488 -21.79681396 2.86743164 C-18.90356996 2.86156906 -16.01043254 2.86300928 -13.1171875 2.8671875 C-11.81962524 2.86421158 -11.81962524 2.86421158 -10.49584961 2.86117554 C-9.29690063 2.86584335 -9.29690063 2.86584335 -8.07373047 2.87060547 C-7.38004364 2.87140106 -6.68635681 2.87219666 -5.97164917 2.87301636 C-3.88020011 3.00771569 -2.01368726 3.43247207 0 4 C0 2.68 0 1.36 0 0 Z " fill="#283648" transform="translate(373,288)"/>
<path d="M0 0 C0.33 0.66 0.66 1.32 1 2 C1.66 2.33 2.32 2.66 3 3 C1.02 3.99 1.02 3.99 -1 5 C-1 5.66 -1 6.32 -1 7 C0.32 7.33 1.64 7.66 3 8 C2.67 10.97 2.34 13.94 2 17 C0 14 0 14 0 11 C-0.99 11 -1.98 11 -3 11 C-2.67 12.65 -2.34 14.3 -2 16 C-2.66 16 -3.32 16 -4 16 C-3.67 16.33 -3.34 16.66 -3 17 C-3.99 18.32 -4.98 19.64 -6 21 C-8.20179476 14.15701196 -7.9315189 10.53954217 -5 4 C-5 3.01 -5 2.02 -5 1 C-3.35 0.67 -1.7 0.34 0 0 Z " fill="#69717C" transform="translate(300,203)"/>
<path d="M0 0 C6.27 0 12.54 0 19 0 C19 0.66 19 1.32 19 2 C32.86 2.495 32.86 2.495 47 3 C47 3.33 47 3.66 47 4 C31.82 4.33 16.64 4.66 1 5 C0.67 3.35 0.34 1.7 0 0 Z " fill="#546476" transform="translate(218,290)"/>
<path d="M0 0 C2.475 0.495 2.475 0.495 5 1 C5.16435547 1.99580078 5.16435547 1.99580078 5.33203125 3.01171875 C6.23606183 8.04636061 7.2955043 11.62129267 10 16 C9.6875 18.3125 9.6875 18.3125 9 20 C7.68 20.33 6.36 20.66 5 21 C4.35089846 19.41800369 3.70585306 17.83434276 3.0625 16.25 C2.70285156 15.36828125 2.34320313 14.4865625 1.97265625 13.578125 C0.1969888 8.87153658 -0.09730289 5.05975034 0 0 Z " fill="#414D60" transform="translate(123,237)"/>
<path d="M0 0 C4.62 0 9.24 0 14 0 C12.97038242 5.14808788 11.65675751 7.62920538 9 12 C5.5912072 10.6015209 4.12606165 9.14993067 2.25 6 C1.82203125 5.29875 1.3940625 4.5975 0.953125 3.875 C0 2 0 2 0 0 Z " fill="#6F7888" transform="translate(359,295)"/>
<path d="M0 0 C0.99 0 1.98 0 3 0 C4.3308911 2.66178221 4.11268993 4.68739396 4.09765625 7.6640625 C4.09443359 8.78554687 4.09121094 9.90703125 4.08789062 11.0625 C4.07951172 12.238125 4.07113281 13.41375 4.0625 14.625 C4.05798828 15.80835938 4.05347656 16.99171875 4.04882812 18.2109375 C4.03701467 21.14067507 4.02054258 24.07031272 4 27 C3.01 27 2.02 27 1 27 C0.66205529 23.97961911 0.32951567 20.95880244 0 17.9375 C-0.09539062 17.08994141 -0.19078125 16.24238281 -0.2890625 15.36914062 C-0.80990456 10.55135158 -1.20596167 5.84653552 -1 1 C-0.67 0.67 -0.34 0.34 0 0 Z " fill="#4B5866" transform="translate(377,203)"/>
<path d="M0 0 C1.41377341 2.63904371 2.37240135 5.07120629 3 8 C2.01 8 1.02 8 0 8 C0.33 10.64 0.66 13.28 1 16 C2.65 16.33 4.3 16.66 6 17 C6 16.34 6 15.68 6 15 C5.01 14.67 4.02 14.34 3 14 C3.66 14 4.32 14 5 14 C4.67 12.35 4.34 10.7 4 9 C4.66 9 5.32 9 6 9 C6 8.34 6 7.68 6 7 C5.34 7 4.68 7 4 7 C4.33 6.34 4.66 5.68 5 5 C5.66 5 6.32 5 7 5 C7.84098656 9.01804691 8.05404945 12.01803543 7 16 C7.66 16 8.32 16 9 16 C8.67 16.66 8.34 17.32 8 18 C7.01 18.33 6.02 18.66 5 19 C4.34 19.99 3.68 20.98 3 22 C3.33 22.66 3.66 23.32 4 24 C2.68 24 1.36 24 0 24 C-0.185625 22.948125 -0.185625 22.948125 -0.375 21.875 C-0.95901289 18.92669919 -0.95901289 18.92669919 -2.0625 15.875 C-3 13 -3 13 -3 10 C-2.34 10 -1.68 10 -1 10 C-1.309375 9.195625 -1.309375 9.195625 -1.625 8.375 C-2.1314747 5.16732692 -1.15400225 2.98682934 0 0 Z " fill="#959CA3" transform="translate(225,204)"/>
<path d="M0 0 C1.65 0.33 3.3 0.66 5 1 C5 1.66 5 2.32 5 3 C4.67 3.33 4.34 3.66 4 4 C4.99 3.67 5.98 3.34 7 3 C6.67 2.34 6.34 1.68 6 1 C7.65 1 9.3 1 11 1 C11.66 2.32 12.32 3.64 13 5 C12.01 5 11.02 5 10 5 C10 5.66 10 6.32 10 7 C10.66 7.33 11.32 7.66 12 8 C10.35 8 8.7 8 7 8 C7 8.66 7 9.32 7 10 C1.28758534 9.61271765 -1.73688282 9.12989477 -6 5 C-4.02 4.34 -2.04 3.68 0 3 C0 2.01 0 1.02 0 0 Z " fill="#707886" transform="translate(232,221)"/>
<path d="M0 0 C-0.33 0.99 -0.66 1.98 -1 3 C-3.31 2.67 -5.62 2.34 -8 2 C-7.67 2.99 -7.34 3.98 -7 5 C-8.32 5 -9.64 5 -11 5 C-11 6.32 -11 7.64 -11 9 C-10.34 9 -9.68 9 -9 9 C-9 9.66 -9 10.32 -9 11 C-9.99 11 -10.98 11 -12 11 C-12 12.98 -12 14.96 -12 17 C-11.01 17 -10.02 17 -9 17 C-9 17.66 -9 18.32 -9 19 C-10.98 18.67 -12.96 18.34 -15 18 C-15 15.36 -15 12.72 -15 10 C-14.01 10 -13.02 10 -12 10 C-12.33 9.4225 -12.66 8.845 -13 8.25 C-14 6 -14 6 -14 2 C-4.58997722 -1.62870159 -4.58997722 -1.62870159 0 0 Z " fill="#545B66" transform="translate(240,202)"/>
<path d="M0 0 C0 1.98 0 3.96 0 6 C-0.99 5.34 -1.98 4.68 -3 4 C-3 3.34 -3 2.68 -3 2 C-5.475 1.505 -5.475 1.505 -8 1 C-8 2.32 -8 3.64 -8 5 C-8.804375 4.855625 -9.60875 4.71125 -10.4375 4.5625 C-19.14115335 3.18823895 -27.76531841 2.73447182 -36.5625 2.4375 C-37.76197266 2.39431641 -38.96144531 2.35113281 -40.19726562 2.30664062 C-43.13141793 2.20143198 -46.0656425 2.09929117 -49 2 C-49 1.67 -49 1.34 -49 1 C-43.4682174 0.8561086 -37.93639822 0.71374793 -32.40454102 0.57275391 C-30.52594969 0.52466352 -28.64736868 0.47616804 -26.76879883 0.42724609 C-24.05552801 0.35665928 -21.34222239 0.28757001 -18.62890625 0.21875 C-17.80040665 0.19687622 -16.97190704 0.17500244 -16.11830139 0.15246582 C-10.74374448 0.01798775 -5.37626369 -0.01885581 0 0 Z " fill="#616E81" transform="translate(381,287)"/>
<path d="M0 0 C1.9375 1.125 1.9375 1.125 3 3 C3.3125 6.0625 3.3125 6.0625 3 9 C1 11 1 11 -2.125 11.125 C-3.07375 11.08375 -4.0225 11.0425 -5 11 C-5 9.02 -5 7.04 -5 5 C-4.01 4.67 -3.02 4.34 -2 4 C-1.67 4.33 -1.34 4.66 -1 5 C-1 4.34 -1 3.68 -1 3 C-3.64 3.33 -6.28 3.66 -9 4 C-9 3.01 -9 2.02 -9 1 C-5.95016004 -0.52491998 -3.3576631 -0.23562548 0 0 Z " fill="#676E7C" transform="translate(374,193)"/>
<path d="M0 0 C7.59 0 15.18 0 23 0 C23.33 1.32 23.66 2.64 24 4 C16.08 3.67 8.16 3.34 0 3 C0 2.01 0 1.02 0 0 Z " fill="#7B808A" transform="translate(165,218)"/>
<path d="M0 0 C0.66 0 1.32 0 2 0 C2 4.62 2 9.24 2 14 C-4.33802817 11.46478873 -4.33802817 11.46478873 -7 9 C-7 8.01 -7 7.02 -7 6 C-5.03277992 4.61876037 -3.03131672 3.28511874 -1 2 C-0.67 1.34 -0.34 0.68 0 0 Z " fill="#485564" transform="translate(373,216)"/>
<path d="M0 0 C0.87454834 0.00523682 1.74909668 0.01047363 2.65014648 0.01586914 C3.59438477 0.0190918 4.53862305 0.02231445 5.51147461 0.02563477 C6.50469727 0.03401367 7.49791992 0.04239258 8.52124023 0.05102539 C9.51833008 0.05553711 10.51541992 0.06004883 11.54272461 0.06469727 C14.01478872 0.07652532 16.48673541 0.0930069 18.95874023 0.11352539 C19.28874023 1.10352539 19.61874023 2.09352539 19.95874023 3.11352539 C9.39874023 3.11352539 -1.16125977 3.11352539 -12.04125977 3.11352539 C-12.04125977 2.78352539 -12.04125977 2.45352539 -12.04125977 2.11352539 C-11.08413086 2.02264648 -11.08413086 2.02264648 -10.10766602 1.92993164 C-8.86823242 1.80424805 -8.86823242 1.80424805 -7.60375977 1.67602539 C-6.78004883 1.59481445 -5.95633789 1.51360352 -5.10766602 1.42993164 C-2.72093261 1.06447719 -2.40737683 0.13388712 0 0 Z " fill="#384456" transform="translate(201.041259765625,203.886474609375)"/>
<path d="M0 0 C2.475 0.99 2.475 0.99 5 2 C4.34 2.66 3.68 3.32 3 4 C4.98 4 6.96 4 9 4 C8.33333333 6.66666667 7.66666667 9.33333333 7 12 C5.35 12 3.7 12 2 12 C2 12.66 2 13.32 2 14 C0.02 14 -1.96 14 -4 14 C-3.01 13.34 -2.02 12.68 -1 12 C-1 11.34 -1 10.68 -1 10 C-0.34 9.67 0.32 9.34 1 9 C0.649375 8.2575 0.29875 7.515 -0.0625 6.75 C-1.04509293 3.8677274 -1.0326802 2.78823655 0 0 Z M1 6 C1 6.66 1 7.32 1 8 C1.66 8 2.32 8 3 8 C3 7.34 3 6.68 3 6 C2.34 6 1.68 6 1 6 Z " fill="#7F868E" transform="translate(243,216)"/>
<path d="M0 0 C0.66 0.33 1.32 0.66 2 1 C1.83383414 5.32031241 1.65309479 7.36323258 -1.5 10.4375 C-5.86238343 12.3849926 -9.30577643 12.37553789 -14 12 C-14 11.34 -14 10.68 -14 10 C-13.07767578 9.77957031 -13.07767578 9.77957031 -12.13671875 9.5546875 C-6.63881846 8.11633434 -6.63881846 8.11633434 -3.0625 3.875 C-2.711875 2.92625 -2.36125 1.9775 -2 1 C-1.34 0.67 -0.68 0.34 0 0 Z " fill="#6F757E" transform="translate(359,197)"/>
<path d="M0 0 C1.11826172 0.00322266 2.23652344 0.00644531 3.38867188 0.00976562 C4.55591797 0.01814453 5.72316406 0.02652344 6.92578125 0.03515625 C8.10462891 0.03966797 9.28347656 0.04417969 10.49804688 0.04882812 C13.41150914 0.06062352 16.32486988 0.07708355 19.23828125 0.09765625 C19.56828125 1.08765625 19.89828125 2.07765625 20.23828125 3.09765625 C15.78000199 3.15548665 11.32181845 3.1911948 6.86328125 3.22265625 C5.59226562 3.23941406 4.32125 3.25617188 3.01171875 3.2734375 C1.8 3.27988281 0.58828125 3.28632813 -0.66015625 3.29296875 C-1.78083496 3.30344238 -2.90151367 3.31391602 -4.05615234 3.32470703 C-6.76171875 3.09765625 -6.76171875 3.09765625 -8.76171875 1.09765625 C-5.58384334 0.03836445 -3.33582932 -0.01693314 0 0 Z " fill="#727D8C" transform="translate(296.76171875,297.90234375)"/>
<path d="M0 0 C0.99 0.33 1.98 0.66 3 1 C3.6953125 2.92578125 3.6953125 2.92578125 4.125 5.3125 C4.34542969 6.48232422 4.34542969 6.48232422 4.5703125 7.67578125 C4.71210938 8.44277344 4.85390625 9.20976562 5 10 C5.3231499 11.33583795 5.65307929 12.67013726 6 14 C4.35 13.67 2.7 13.34 1 13 C0.67 13.66 0.34 14.32 0 15 C-0.042721 13.33388095 -0.04063832 11.66617115 0 10 C0.33 9.67 0.66 9.34 1 9 C0.34 8.34 -0.32 7.68 -1 7 C-1.99 7 -2.98 7 -4 7 C-4.33 5.02 -4.66 3.04 -5 1 C-4.34 1 -3.68 1 -3 1 C-3 1.66 -3 2.32 -3 3 C-2.01 2.01 -1.02 1.02 0 0 Z M-3 4 C-3 4.66 -3 5.32 -3 6 C-2.34 6 -1.68 6 -1 6 C-1 5.34 -1 4.68 -1 4 C-1.66 4 -2.32 4 -3 4 Z " fill="#777C87" transform="translate(317,204)"/>
<path d="M0 0 C1.32 0 2.64 0 4 0 C5.32 2.64 6.64 5.28 8 8 C4.37 8 0.74 8 -3 8 C-3.33 7.34 -3.66 6.68 -4 6 C-2.25 3 -2.25 3 0 0 Z " fill="#687481" transform="translate(352,296)"/>
<path d="M0 0 C2.86207152 1.28299758 5.0245088 2.530636 7 5 C7 5.99 7 6.98 7 8 C3.7 8 0.4 8 -3 8 C-3.33 7.34 -3.66 6.68 -4 6 C-2.68 4.02 -1.36 2.04 0 0 Z " fill="#7D8590" transform="translate(142,194)"/>
<path d="M0 0 C0 0.66 0 1.32 0 2 C1.21236328 1.98259766 1.21236328 1.98259766 2.44921875 1.96484375 C3.51785156 1.95582031 4.58648437 1.94679688 5.6875 1.9375 C6.74324219 1.92589844 7.79898438 1.91429687 8.88671875 1.90234375 C11.72410262 1.99134575 14.2438919 2.35060162 17 3 C17 3.33 17 3.66 17 4 C8.75 4 0.5 4 -8 4 C-7.67 3.01 -7.34 2.02 -7 1 C-4 0 -4 0 0 0 Z " fill="#37485B" transform="translate(244,289)"/>
<path d="M0 0 C0 0.99 0 1.98 0 3 C-4 5 -8 7 -12 9 C-11.67 7.68 -11.34 6.36 -11 5 C-10.34 5.33 -9.68 5.66 -9 6 C-9 5.34 -9 4.68 -9 4 C-10.32 3.67 -11.64 3.34 -13 3 C-8.37802694 0.78145293 -5.23175837 -0.38281159 0 0 Z " fill="#626C7B" transform="translate(144,204)"/>
<path d="M0 0 C0 0.66 0 1.32 0 2 C-0.66 2 -1.32 2 -2 2 C-1.01 2.99 -0.02 3.98 1 5 C0.67 5.99 0.34 6.98 0 8 C-4.455 8.495 -4.455 8.495 -9 9 C-8.67 8.01 -8.34 7.02 -8 6 C-9.98 6 -11.96 6 -14 6 C-12.68 5.34 -11.36 4.68 -10 4 C-10 3.01 -10 2.02 -10 1 C-9.34 2.32 -8.68 3.64 -8 5 C-6.35 4.67 -4.7 4.34 -3 4 C-3.33 3.01 -3.66 2.02 -4 1 C-2 0 -2 0 0 0 Z " fill="#868E98" transform="translate(319,221)"/>
<path d="M0 0 C3.81884554 -0.21821974 6.65842753 0.05074939 10 2 C11.1807689 5.28928478 11.1157177 6.65284689 10 10 C9.34 10 8.68 10 8 10 C8 9.01 8 8.02 8 7 C6.35 7 4.7 7 3 7 C2.67 5.35 2.34 3.7 2 2 C1.34 2 0.68 2 0 2 C0 1.34 0 0.68 0 0 Z " fill="#707984" transform="translate(240,202)"/>
<path d="M0 0 C0.99 0 1.98 0 3 0 C3 2.31 3 4.62 3 7 C2.34 7 1.68 7 1 7 C0.67 7.66 0.34 8.32 0 9 C-0.33 8.01 -0.66 7.02 -1 6 C-0.34 6 0.32 6 1 6 C1 5.34 1 4.68 1 4 C-0.65 4.33 -2.3 4.66 -4 5 C-4 6.32 -4 7.64 -4 9 C-4.99 9 -5.98 9 -7 9 C-7.66 7.68 -8.32 6.36 -9 5 C-8.360625 4.896875 -7.72125 4.79375 -7.0625 4.6875 C-6.381875 4.460625 -5.70125 4.23375 -5 4 C-4.67 3.01 -4.34 2.02 -4 1 C-2.68 1.33 -1.36 1.66 0 2 C0 1.34 0 0.68 0 0 Z " fill="#4E545E" transform="translate(318,217)"/>
<path d="M0 0 C2.38507992 1.59005328 2.94502644 2.82662184 3.8125 5.5625 C3.874375 6.366875 3.93625 7.17125 4 8 C3.34 8.66 2.68 9.32 2 10 C1.01 10 0.02 10 -1 10 C-1.99 7.03 -2.98 4.06 -4 1 C-2.68 0.67 -1.36 0.34 0 0 Z " fill="#606D7B" transform="translate(129,248)"/>
<path d="M0 0 C0.9075 0.103125 1.815 0.20625 2.75 0.3125 C2.75 0.9725 2.75 1.6325 2.75 2.3125 C2.09 2.3125 1.43 2.3125 0.75 2.3125 C0.3375 3.281875 -0.075 4.25125 -0.5 5.25 C-2.25 8.3125 -2.25 8.3125 -4.4375 9.1875 C-5.3346875 9.249375 -5.3346875 9.249375 -6.25 9.3125 C-7 7.625 -7 7.625 -7.25 5.3125 C-5.16842411 1.64892643 -4.27562648 0.41111793 0 0 Z " fill="#4A596B" transform="translate(132.25,207.6875)"/>
<path d="M0 0 C3.63 0 7.26 0 11 0 C11 1.32 11 2.64 11 4 C7.37 4 3.74 4 0 4 C-0.33 3.34 -0.66 2.68 -1 2 C-0.67 1.34 -0.34 0.68 0 0 Z " fill="#888D96" transform="translate(334,196)"/>
<path d="M0 0 C0.66 0 1.32 0 2 0 C3.625 2 3.625 2 5 4 C5.66 3.67 6.32 3.34 7 3 C7 3.66 7 4.32 7 5 C7.66 5.33 8.32 5.66 9 6 C7.6875 8 7.6875 8 6 10 C5.01 10 4.02 10 3 10 C2 8 1 6 0 4 C-0.99 3.67 -1.98 3.34 -3 3 C-2.01 2.67 -1.02 2.34 0 2 C0 1.34 0 0.68 0 0 Z " fill="#707A84" transform="translate(358,192)"/>
<path d="M0 0 C1.65 0.33 3.3 0.66 5 1 C5 1.66 5 2.32 5 3 C4.34 3 3.68 3 3 3 C3.33 4.65 3.66 6.3 4 8 C-1.41538462 8.36923077 -1.41538462 8.36923077 -4.375 6.5 C-4.91125 6.005 -5.4475 5.51 -6 5 C-4.02 4.34 -2.04 3.68 0 3 C0 2.01 0 1.02 0 0 Z " fill="#59636D" transform="translate(232,221)"/>
<path d="M0 0 C-3 2 -3 2 -5.5 2.875 C-8.32772011 4.14747405 -9.36262146 5.41466547 -11 8 C-12.125 6.25 -12.125 6.25 -13 4 C-12.375 1.8125 -12.375 1.8125 -11 0 C-7.42137716 -1.72304063 -3.78087134 -0.65438158 0 0 Z " fill="#67707A" transform="translate(159,220)"/>
<path d="M0 0 C2.97 0 5.94 0 9 0 C9 0.66 9 1.32 9 2 C9.66 2.33 10.32 2.66 11 3 C5.04296875 4.7578125 5.04296875 4.7578125 3 5 C2.01 4.34 1.02 3.68 0 3 C0 2.01 0 1.02 0 0 Z " fill="#364559" transform="translate(360,296)"/>
<path d="M0 0 C-0.33 1.65 -0.66 3.3 -1 5 C-3.64 5 -6.28 5 -9 5 C-9 4.01 -9 3.02 -9 2 C-3.375 0 -3.375 0 0 0 Z " fill="#989B9D" transform="translate(152,355)"/>
<path d="M0 0 C1.65 0.33 3.3 0.66 5 1 C4.37240135 3.92879371 3.41377341 6.36095629 2 9 C2 8.34 2 7.68 2 7 C0.68 7.33 -0.64 7.66 -2 8 C-2.33 7.34 -2.66 6.68 -3 6 C-2.01 6 -1.02 6 0 6 C0 4.02 0 2.04 0 0 Z " fill="#4C5362" transform="translate(248,213)"/>
<path d="M0 0 C2.97 0 5.94 0 9 0 C8.67 1.65 8.34 3.3 8 5 C5.08517222 5.80967438 3.53886783 6.21845993 0.6875 5.0625 C0.130625 4.711875 -0.42625 4.36125 -1 4 C1 3 1 3 5 3 C5 2.34 5 1.68 5 1 C3.35 1 1.7 1 0 1 C0 0.67 0 0.34 0 0 Z " fill="#66707A" transform="translate(338,297)"/>
<path d="M0 0 C1.32 0.33 2.64 0.66 4 1 C4.33 2.65 4.66 4.3 5 6 C2.69 6.33 0.38 6.66 -2 7 C-2.33 5.35 -2.66 3.7 -3 2 C-2.34 2 -1.68 2 -1 2 C-0.67 1.34 -0.34 0.68 0 0 Z M1 1 C1.33 1.66 1.66 2.32 2 3 C2.33 2.34 2.66 1.68 3 1 C2.34 1 1.68 1 1 1 Z " fill="#848990" transform="translate(298,222)"/>
<path d="M0 0 C0.99 0 1.98 0 3 0 C3.84098656 4.01804691 4.05404945 7.01803543 3 11 C3.66 11 4.32 11 5 11 C4.67 11.66 4.34 12.32 4 13 C1.9375 13.625 1.9375 13.625 0 14 C0 13.34 0 12.68 0 12 C0.66 12 1.32 12 2 12 C2 11.34 2 10.68 2 10 C1.01 9.67 0.02 9.34 -1 9 C-0.34 9 0.32 9 1 9 C0.67 7.35 0.34 5.7 0 4 C0.66 4 1.32 4 2 4 C2 3.34 2 2.68 2 2 C1.34 2 0.68 2 0 2 C0 1.34 0 0.68 0 0 Z " fill="#979BA5" transform="translate(229,209)"/>
<path d="M0 0 C2.64 0.66 5.28 1.32 8 2 C8 2.99 8 3.98 8 5 C5.36 5 2.72 5 0 5 C0 3.35 0 1.7 0 0 Z " fill="#94969A" transform="translate(349,355)"/>
<path d="M0 0 C2.64 0.33 5.28 0.66 8 1 C8 1.33 8 1.66 8 2 C6.35 2 4.7 2 3 2 C3 2.66 3 3.32 3 4 C3.66 4 4.32 4 5 4 C5 4.99 5 5.98 5 7 C3.35 7 1.7 7 0 7 C0 6.01 0 5.02 0 4 C-0.66 3.67 -1.32 3.34 -2 3 C-1.34 2.67 -0.68 2.34 0 2 C0 1.34 0 0.68 0 0 Z " fill="#6D7C83" transform="translate(232,204)"/>
<path d="M0 0 C0.5534764 2.07553648 1 3.84365964 1 6 C1.99 6 2.98 6 4 6 C4.33 5.01 4.66 4.02 5 3 C5 3.66 5 4.32 5 5 C5.99 5 6.98 5 8 5 C8 5.99 8 6.98 8 8 C5.36 8 2.72 8 0 8 C-0.38063221 5.6739143 -0.71269945 3.33944736 -1 1 C-0.67 0.67 -0.34 0.34 0 0 Z " fill="#889198" transform="translate(348,192)"/>
<path d="M0 0 C2.875 -0.125 2.875 -0.125 6 0 C6.66 0.66 7.32 1.32 8 2 C7.625 4.125 7.625 4.125 7 6 C6.34 6 5.68 6 5 6 C5 5.34 5 4.68 5 4 C3.35 4 1.7 4 0 4 C0 2.68 0 1.36 0 0 Z " fill="#8E969B" transform="translate(144,140)"/>
<path d="M0 0 C0.99 0 1.98 0 3 0 C3 1.65 3 3.3 3 5 C3.66 5.33 4.32 5.66 5 6 C2.03 6 -0.94 6 -4 6 C-3.34 5.67 -2.68 5.34 -2 5 C-2 4.01 -2 3.02 -2 2 C-1.34 2 -0.68 2 0 2 C0 1.34 0 0.68 0 0 Z " fill="#3C465B" transform="translate(146,244)"/>
<path d="M0 0 C1.98 0 3.96 0 6 0 C5.25 2.4375 5.25 2.4375 4 5 C1.875 5.8125 1.875 5.8125 0 6 C-1 3 -1 3 0 0 Z " fill="#32465A" transform="translate(140,241)"/>
<path d="M0 0 C0 3 0 3 -1 5 C0.65 5 2.3 5 4 5 C3.67 6.65 3.34 8.3 3 10 C0.50638429 8.79618552 -1.68143083 7.54571278 -4 6 C-4 5.01 -4 4.02 -4 3 C-2 1.3125 -2 1.3125 0 0 Z " fill="#596576" transform="translate(370,219)"/>
<path d="M0 0 C1.98 0 3.96 0 6 0 C6 1.98 6 3.96 6 6 C5.34 6 4.68 6 4 6 C4.66 6.66 5.32 7.32 6 8 C4.68 8 3.36 8 2 8 C1.855625 7.236875 1.71125 6.47375 1.5625 5.6875 C1.0367406 2.91827092 1.0367406 2.91827092 0 0 Z " fill="#7C838C" transform="translate(223,220)"/>
<path d="M0 0 C-0.33 1.32 -0.66 2.64 -1 4 C-3.31 4.66 -5.62 5.32 -8 6 C-8 4.35 -8 2.7 -8 1 C-5.23735711 0.40267181 -2.83967231 0 0 0 Z " fill="#A9AAAD" transform="translate(357,140)"/>
<path d="M0 0 C5.94 0 11.88 0 18 0 C18 0.33 18 0.66 18 1 C16.39318359 1.07347656 16.39318359 1.07347656 14.75390625 1.1484375 C13.35674361 1.22345294 11.9596095 1.2990013 10.5625 1.375 C9.85544922 1.4059375 9.14839844 1.436875 8.41992188 1.46875 C6.60760812 1.57280629 4.80182012 1.77919892 3 2 C2.67 2.66 2.34 3.32 2 4 C2.99 4.33 3.98 4.66 5 5 C3.35 4.67 1.7 4.34 0 4 C0 2.68 0 1.36 0 0 Z " fill="#707A88" transform="translate(218,290)"/>
<path d="M0 0 C0.66 0.33 1.32 0.66 2 1 C1.67 3.31 1.34 5.62 1 8 C-0.32 7.67 -1.64 7.34 -3 7 C-2.625 4.0625 -2.625 4.0625 -2 1 C-1.34 0.67 -0.68 0.34 0 0 Z " fill="#525D6C" transform="translate(359,197)"/>
<path d="M0 0 C0.66 0.33 1.32 0.66 2 1 C2 4.3 2 7.6 2 11 C1.01 11 0.02 11 -1 11 C-0.814375 10.278125 -0.62875 9.55625 -0.4375 8.8125 C0.02043853 5.86860943 -0.36092449 3.87583978 -1 1 C-0.67 0.67 -0.34 0.34 0 0 Z " fill="#8E8F99" transform="translate(390,162)"/>
<path d="M0 0 C4.95 0 9.9 0 15 0 C15.33 1.32 15.66 2.64 16 4 C15.34 4 14.68 4 14 4 C13.67 4.66 13.34 5.32 13 6 C13 3 13 3 14 1 C12.37419034 1.11398665 10.74932843 1.24155659 9.125 1.375 C8.22007812 1.44460937 7.31515625 1.51421875 6.3828125 1.5859375 C3.82058097 1.79568132 3.82058097 1.79568132 2 4 C1.34 2.68 0.68 1.36 0 0 Z " fill="#8A929E" transform="translate(132,240)"/>
<path d="M0 0 C2.31 0 4.62 0 7 0 C7 1.98 7 3.96 7 6 C6.34 5.01 5.68 4.02 5 3 C4.34 3.66 3.68 4.32 3 5 C3 4.34 3 3.68 3 3 C1.68 3 0.36 3 -1 3 C-0.67 2.01 -0.34 1.02 0 0 Z " fill="#858C9B" transform="translate(150,227)"/>
<path d="M0 0 C0.99 0.33 1.98 0.66 3 1 C4.1875 4.5625 4.1875 4.5625 5 8 C3.35 8 1.7 8 0 8 C-0.33 7.01 -0.66 6.02 -1 5 C-0.34 5 0.32 5 1 5 C0.67 3.35 0.34 1.7 0 0 Z " fill="#616973" transform="translate(239,203)"/>
<path d="M0 0 C0 0.66 0 1.32 0 2 C-0.99 2.66 -1.98 3.32 -3 4 C-4.20450304 6.55183404 -4.20450304 6.55183404 -5 9 C-6.76462683 5.91190305 -7 4.76687864 -7 1 C-4.50935112 0.31292445 -2.62113708 0 0 0 Z " fill="#404851" transform="translate(308,202)"/>
<path d="M0 0 C1.98 0 3.96 0 6 0 C4.02 0.99 4.02 0.99 2 2 C3.32 2 4.64 2 6 2 C6 2.66 6 3.32 6 4 C6.66 4.33 7.32 4.66 8 5 C5.03 5 2.06 5 -1 5 C-0.67 3.35 -0.34 1.7 0 0 Z " fill="#9BA0A7" transform="translate(304,206)"/>
<path d="M0 0 C1.65 0 3.3 0 5 0 C5.66 1.32 6.32 2.64 7 4 C6.01 4 5.02 4 4 4 C4 4.66 4 5.32 4 6 C4.66 6.33 5.32 6.66 6 7 C4.125 6.875 4.125 6.875 2 6 C0.75 2.9375 0.75 2.9375 0 0 Z " fill="#3C4754" transform="translate(238,222)"/>
<path d="M0 0 C2.475 0.99 2.475 0.99 5 2 C4.67 3.32 4.34 4.64 4 6 C2.68 6.33 1.36 6.66 0 7 C0 4.69 0 2.38 0 0 Z " fill="#3C4959" transform="translate(366,213)"/>
<path d="M0 0 C2.475 0.495 2.475 0.495 5 1 C5 3.31 5 5.62 5 8 C4.67 8 4.34 8 4 8 C4 6.35 4 4.7 4 3 C3.01 3 2.02 3 1 3 C0.67 4.32 0.34 5.64 0 7 C0 4.69 0 2.38 0 0 Z " fill="#7F8793" transform="translate(123,237)"/>
<path d="M0 0 C1.32 0 2.64 0 4 0 C4 1.32 4 2.64 4 4 C3.01 4 2.02 4 1 4 C1 4.66 1 5.32 1 6 C-0.98 6 -2.96 6 -5 6 C-4.01 5.34 -3.02 4.68 -2 4 C-2 3.34 -2 2.68 -2 2 C-1.34 1.34 -0.68 0.68 0 0 Z " fill="#9FA8B2" transform="translate(244,224)"/>
<path d="M0 0 C0.66 0.99 1.32 1.98 2 3 C1.01 3 0.02 3 -1 3 C-0.67 4.98 -0.34 6.96 0 9 C0.66 9 1.32 9 2 9 C1 12 1 12 -2 14 C-2 10.04 -2 6.08 -2 2 C-1.34 2 -0.68 2 0 2 C0 1.34 0 0.68 0 0 Z " fill="#9CA4B1" transform="translate(367,210)"/>
<path d="M0 0 C0.99 0 1.98 0 3 0 C3.33 1.98 3.66 3.96 4 6 C3.67 5.34 3.34 4.68 3 4 C2.01 4 1.02 4 0 4 C-0.33 5.32 -0.66 6.64 -1 8 C-1.04241723 5.66705225 -1.04092937 3.33297433 -1 1 C-0.67 0.67 -0.34 0.34 0 0 Z " fill="#828D95" transform="translate(377,203)"/>
<path d="M0 0 C1.98 0.495 1.98 0.495 4 1 C3.67 3.97 3.34 6.94 3 10 C1 7 1 7 1 4 C0.34 3.67 -0.32 3.34 -1 3 C-0.67 2.01 -0.34 1.02 0 0 Z " fill="#9598A5" transform="translate(299,210)"/>
<path d="M0 0 C0.33 0.66 0.66 1.32 1 2 C1.66 2.33 2.32 2.66 3 3 C1.6875 5 1.6875 5 0 7 C-0.99 7 -1.98 7 -3 7 C-2.38722388 4.03824877 -1.74627478 2.61941217 0 0 Z " fill="#999EAA" transform="translate(364,195)"/>
<path d="M0 0 C0.99 0.33 1.98 0.66 3 1 C2.34 1 1.68 1 1 1 C1 3.64 1 6.28 1 9 C-0.5 7.75 -0.5 7.75 -2 6 C-2 4.68 -2 3.36 -2 2 C-1.34 2 -0.68 2 0 2 C0 1.34 0 0.68 0 0 Z " fill="#8D92A0" transform="translate(132,222)"/>
<path d="M0 0 C2.97 0 5.94 0 9 0 C9 1.98 9 3.96 9 6 C8.01 5.34 7.02 4.68 6 4 C6 3.34 6 2.68 6 2 C3.03 1.505 3.03 1.505 0 1 C0 0.67 0 0.34 0 0 Z " fill="#7D8491" transform="translate(372,287)"/>
<path d="M0 0 C1.65 0.33 3.3 0.66 5 1 C4.67 2.65 4.34 4.3 4 6 C3.34 5.34 2.68 4.68 2 4 C1.01 4 0.02 4 -1 4 C-0.67 2.68 -0.34 1.36 0 0 Z " fill="#626E84" transform="translate(124,215)"/>
<path d="M0 0 C0.99 0.33 1.98 0.66 3 1 C2.01 3.97 1.02 6.94 0 10 C-1.6415049 6.7169902 -0.51888624 3.57454967 0 0 Z " fill="#9DA3A7" transform="translate(313,212)"/>
<path d="M0 0 C1.65 0 3.3 0 5 0 C4.67 1.65 4.34 3.3 4 5 C3.01 4.67 2.02 4.34 1 4 C0.3125 1.9375 0.3125 1.9375 0 0 Z " fill="#535E6C" transform="translate(149,196)"/>
<path d="M0 0 C1.32 0 2.64 0 4 0 C3.67 1.32 3.34 2.64 3 4 C1.68 4 0.36 4 -1 4 C-0.67 2.68 -0.34 1.36 0 0 Z " fill="#A3ACAD" transform="translate(301,407)"/>
<path d="M0 0 C1.32 0.33 2.64 0.66 4 1 C3.67 2.32 3.34 3.64 3 5 C2.01 5 1.02 5 0 5 C0 3.35 0 1.7 0 0 Z " fill="#A3A5A8" transform="translate(145,367)"/>
<path d="M0 0 C1.32 0.33 2.64 0.66 4 1 C4 2.32 4 3.64 4 5 C2.68 4.67 1.36 4.34 0 4 C0 2.68 0 1.36 0 0 Z " fill="#A7A7AB" transform="translate(351,361)"/>
<path d="M0 0 C1.32 0 2.64 0 4 0 C4 0.99 4 1.98 4 3 C5.65 2.67 7.3 2.34 9 2 C9 2.66 9 3.32 9 4 C3.58461538 4.36923077 3.58461538 4.36923077 0.625 2.5 C0.08875 2.005 -0.4475 1.51 -1 1 C-0.67 0.67 -0.34 0.34 0 0 Z " fill="#36424D" transform="translate(227,225)"/>
<path d="M0 0 C2.31 0.33 4.62 0.66 7 1 C3.5647952 3.29013653 2.014669 3.17842973 -2 3 C-1.34 2.67 -0.68 2.34 0 2 C0 1.34 0 0.68 0 0 Z " fill="#65696E" transform="translate(152,219)"/>
<path d="M0 0 C2.97 0.495 2.97 0.495 6 1 C6 1.99 6 2.98 6 4 C4.35 3.67 2.7 3.34 1 3 C0.67 3.66 0.34 4.32 0 5 C0 3.35 0 1.7 0 0 Z " fill="#80878D" transform="translate(317,214)"/>
<path d="M0 0 C2.31 0 4.62 0 7 0 C7.33 0.66 7.66 1.32 8 2 C5.36 2.33 2.72 2.66 0 3 C0 2.01 0 1.02 0 0 Z " fill="#484E60" transform="translate(365,194)"/>
<path d="M0 0 C0.99 0.33 1.98 0.66 3 1 C3 2.32 3 3.64 3 5 C1.68 5 0.36 5 -1 5 C-0.67 3.35 -0.34 1.7 0 0 Z " fill="#8D9196" transform="translate(146,128)"/>
<path d="M0 0 C2.475 0.495 2.475 0.495 5 1 C5 1.99 5 2.98 5 4 C3.35 3.67 1.7 3.34 0 3 C0 2.01 0 1.02 0 0 Z " fill="#94969C" transform="translate(236,421)"/>
<path d="M0 0 C0.99 0 1.98 0 3 0 C2.67 1.65 2.34 3.3 2 5 C1.01 5 0.02 5 -1 5 C-0.67 3.35 -0.34 1.7 0 0 Z " fill="#95989B" transform="translate(407,285)"/>
<path d="M0 0 C0.99 0.33 1.98 0.66 3 1 C3 2.32 3 3.64 3 5 C1.68 4.67 0.36 4.34 -1 4 C-0.67 2.68 -0.34 1.36 0 0 Z " fill="#A3A5A9" transform="translate(88,272)"/>
<path d="M0 0 C1.32 0.66 2.64 1.32 4 2 C3.67 2.99 3.34 3.98 3 5 C2.01 5 1.02 5 0 5 C-0.5625 3.0625 -0.5625 3.0625 -1 1 C-0.67 0.67 -0.34 0.34 0 0 Z " fill="#A8ABAC" transform="translate(86,260)"/>
<path d="M0 0 C1.32 0 2.64 0 4 0 C4 1.32 4 2.64 4 4 C3.01 4.33 2.02 4.66 1 5 C0.67 3.35 0.34 1.7 0 0 Z " fill="#969797" transform="translate(90,211)"/>
<path d="M0 0 C1.32 0.33 2.64 0.66 4 1 C4 2.32 4 3.64 4 5 C3.01 5 2.02 5 1 5 C0.67 3.35 0.34 1.7 0 0 Z " fill="#AEAEB0" transform="translate(113,186)"/>
<path d="M0 0 C1.32 0.33 2.64 0.66 4 1 C3.67 2.32 3.34 3.64 3 5 C2.01 5 1.02 5 0 5 C0 3.35 0 1.7 0 0 Z " fill="#929296" transform="translate(108,162)"/>
<path d="M0 0 C2.475 0.495 2.475 0.495 5 1 C5 1.99 5 2.98 5 4 C3.35 3.67 1.7 3.34 0 3 C0 2.01 0 1.02 0 0 Z " fill="#ADAFB0" transform="translate(376,142)"/>
<path d="M0 0 C1.65 0 3.3 0 5 0 C5 1.32 5 2.64 5 4 C3.0625 3.6875 3.0625 3.6875 1 3 C0.67 2.01 0.34 1.02 0 0 Z " fill="#AAADAD" transform="translate(324,97)"/>
<path d="M0 0 C0.66 0.33 1.32 0.66 2 1 C1.34 2.32 0.68 3.64 0 5 C-0.99 5 -1.98 5 -3 5 C-2.625 3.0625 -2.625 3.0625 -2 1 C-1.34 0.67 -0.68 0.34 0 0 Z " fill="#ACAFB1" transform="translate(234,78)"/>
<path d="M0 0 C1.9375 0.3125 1.9375 0.3125 4 1 C4.33 1.99 4.66 2.98 5 4 C3.35 3.67 1.7 3.34 0 3 C0 2.01 0 1.02 0 0 Z " fill="#9FA0A1" transform="translate(241,425)"/>
<path d="M0 0 C2.475 0.495 2.475 0.495 5 1 C4.67 1.99 4.34 2.98 4 4 C2.68 3.67 1.36 3.34 0 3 C0 2.01 0 1.02 0 0 Z " fill="#9EA1A3" transform="translate(195,407)"/>
<path d="M0 0 C1.98 0.495 1.98 0.495 4 1 C4 1.99 4 2.98 4 4 C2.35 3.67 0.7 3.34 -1 3 C-0.67 2.01 -0.34 1.02 0 0 Z " fill="#A7AAAA" transform="translate(161,393)"/>
<path d="M0 0 C0.99 0 1.98 0 3 0 C2.67 1.32 2.34 2.64 2 4 C0.68 4 -0.64 4 -2 4 C-1.34 2.68 -0.68 1.36 0 0 Z " fill="#999B9F" transform="translate(341,389)"/>
<path d="M0 0 C0.99 0 1.98 0 3 0 C2.67 1.65 2.34 3.3 2 5 C1.01 4.67 0.02 4.34 -1 4 C-0.67 2.68 -0.34 1.36 0 0 Z " fill="#A3A4A6" transform="translate(345,384)"/>
<path d="M0 0 C0.99 0.33 1.98 0.66 3 1 C2.34 2.32 1.68 3.64 1 5 C0.01 4.67 -0.98 4.34 -2 4 C-1.34 2.68 -0.68 1.36 0 0 Z " fill="#8F8F92" transform="translate(349,379)"/>
<path d="M0 0 C1.32 0 2.64 0 4 0 C3.34 1.65 2.68 3.3 2 5 C1.34 5 0.68 5 0 5 C0 3.35 0 1.7 0 0 Z " fill="#94979A" transform="translate(146,361)"/>
<path d="M0 0 C2.475 0.495 2.475 0.495 5 1 C4.67 1.99 4.34 2.98 4 4 C2.68 3.67 1.36 3.34 0 3 C0 2.01 0 1.02 0 0 Z " fill="#A6A8AB" transform="translate(119,355)"/>
<path d="M0 0 C0.66 0 1.32 0 2 0 C1.67 1.65 1.34 3.3 1 5 C0.01 5 -0.98 5 -2 5 C-1.125 1.125 -1.125 1.125 0 0 Z " fill="#818285" transform="translate(387,345)"/>
<path d="M0 0 C0.99 0 1.98 0 3 0 C3.33 1.65 3.66 3.3 4 5 C3.01 5 2.02 5 1 5 C0.67 3.35 0.34 1.7 0 0 Z " fill="#8C8E98" transform="translate(111,345)"/>
<path d="M0 0 C1.98 0.99 1.98 0.99 4 2 C3.67 2.99 3.34 3.98 3 5 C2.01 5 1.02 5 0 5 C0 3.35 0 1.7 0 0 Z " fill="#767B80" transform="translate(108,333)"/>
<path d="M0 0 C0.99 0.33 1.98 0.66 3 1 C2.67 2.32 2.34 3.64 2 5 C1.01 5 0.02 5 -1 5 C-0.67 3.35 -0.34 1.7 0 0 Z " fill="#9BA1A2" transform="translate(390,333)"/>
<path d="M0 0 C0.99 0 1.98 0 3 0 C3.33 1.32 3.66 2.64 4 4 C2.68 4.33 1.36 4.66 0 5 C0 3.35 0 1.7 0 0 Z " fill="#AAACAE" transform="translate(87,266)"/>
<path d="M0 0 C1.32 0 2.64 0 4 0 C4.33 1.32 4.66 2.64 5 4 C3.35 3.67 1.7 3.34 0 3 C0 2.01 0 1.02 0 0 Z " fill="#959799" transform="translate(411,236)"/>
<path d="M0 0 C0.66 0 1.32 0 2 0 C2 1.65 2 3.3 2 5 C0.68 5 -0.64 5 -2 5 C-1.34 3.35 -0.68 1.7 0 0 Z " fill="#7D8182" transform="translate(87,235)"/>
<path d="M0 0 C0.99 0 1.98 0 3 0 C3.33 0.99 3.66 1.98 4 3 C3.67 3.66 3.34 4.32 3 5 C2.01 5 1.02 5 0 5 C0 3.35 0 1.7 0 0 Z " fill="#8E9295" transform="translate(87,229)"/>
<path d="M0 0 C0.99 0 1.98 0 3 0 C2.67 1.65 2.34 3.3 2 5 C1.01 4.67 0.02 4.34 -1 4 C-0.67 2.68 -0.34 1.36 0 0 Z " fill="#929799" transform="translate(88,223)"/>
<path d="M0 0 C0.99 0 1.98 0 3 0 C3.33 1.32 3.66 2.64 4 4 C2.68 4 1.36 4 0 4 C-0.33 3.01 -0.66 2.02 -1 1 C-0.67 0.67 -0.34 0.34 0 0 Z " fill="#979C9F" transform="translate(407,211)"/>
<path d="M0 0 C2.475 0.495 2.475 0.495 5 1 C4.67 1.99 4.34 2.98 4 4 C2.68 3.67 1.36 3.34 0 3 C0 2.01 0 1.02 0 0 Z " fill="#9C9DA1" transform="translate(388,196)"/>
<path d="M0 0 C0.99 0.33 1.98 0.66 3 1 C2.67 2.32 2.34 3.64 2 5 C1.01 5 0.02 5 -1 5 C-0.67 3.35 -0.34 1.7 0 0 Z " fill="#8E8D93" transform="translate(110,156)"/>
<path d="M0 0 C0.99 0.33 1.98 0.66 3 1 C3 2.32 3 3.64 3 5 C2.01 5 1.02 5 0 5 C-0.5625 3.0625 -0.5625 3.0625 -1 1 C-0.67 0.67 -0.34 0.34 0 0 Z " fill="#A8AAAC" transform="translate(382,145)"/>
<path d="M0 0 C0.99 0 1.98 0 3 0 C3.33 1.32 3.66 2.64 4 4 C2.68 4 1.36 4 0 4 C0 2.68 0 1.36 0 0 Z " fill="#9C9C9E" transform="translate(348,117)"/>
<path d="M0 0 C0.99 0 1.98 0 3 0 C2.67 1.32 2.34 2.64 2 4 C0.68 4 -0.64 4 -2 4 C-1.34 2.68 -0.68 1.36 0 0 Z " fill="#A0A2A6" transform="translate(158,107)"/>
<path d="M0 0 C1.9375 0.3125 1.9375 0.3125 4 1 C4.33 1.99 4.66 2.98 5 4 C3.35 3.67 1.7 3.34 0 3 C0 2.01 0 1.02 0 0 Z " fill="#A3A6A8" transform="translate(335,103)"/>
<path d="M0 0 C0.99 0 1.98 0 3 0 C3 1.32 3 2.64 3 4 C1.35 3.67 -0.3 3.34 -2 3 C-1.34 2.01 -0.68 1.02 0 0 Z " fill="#A1A3A6" transform="translate(238,75)"/>
<path d="M0 0 C-0.33 1.65 -0.66 3.3 -1 5 C-1.99 4.67 -2.98 4.34 -4 4 C-4 3.01 -4 2.02 -4 1 C-2 0 -2 0 0 0 Z " fill="#ACAFB0" transform="translate(255,430)"/>
<path d="M0 0 C0.99 0 1.98 0 3 0 C2.67 1.32 2.34 2.64 2 4 C0.68 4 -0.64 4 -2 4 C-2 3.34 -2 2.68 -2 2 C-1.34 2 -0.68 2 0 2 C0 1.34 0 0.68 0 0 Z " fill="#9B9C9D" transform="translate(261,421)"/>
<path d="M0 0 C1.65 0.33 3.3 0.66 5 1 C4.67 1.66 4.34 2.32 4 3 C2.35 3 0.7 3 -1 3 C-0.67 2.01 -0.34 1.02 0 0 Z " fill="#95999B" transform="translate(307,406)"/>
<path d="M0 0 C0 1.32 0 2.64 0 4 C-0.99 4.33 -1.98 4.66 -3 5 C-3.33 3.68 -3.66 2.36 -4 1 C-2 0 -2 0 0 0 Z " fill="#9FA2A4" transform="translate(339,393)"/>
<path d="M0 0 C0.99 0 1.98 0 3 0 C3 1.65 3 3.3 3 5 C2.01 5 1.02 5 0 5 C0 3.35 0 1.7 0 0 Z " fill="#A8ABAF" transform="translate(352,367)"/>
<path d="M0 0 C1.32 0 2.64 0 4 0 C3.34 1.32 2.68 2.64 2 4 C1.01 3.67 0.02 3.34 -1 3 C-0.67 2.01 -0.34 1.02 0 0 Z " fill="#8D8F91" transform="translate(377,355)"/>
<path d="M0 0 C1.98 0.99 1.98 0.99 4 2 C3.67 2.99 3.34 3.98 3 5 C2.01 4.67 1.02 4.34 0 4 C0 2.68 0 1.36 0 0 Z " fill="#94999D" transform="translate(115,350)"/>
<path d="M0 0 C0.99 0 1.98 0 3 0 C3 1.65 3 3.3 3 5 C2.01 5 1.02 5 0 5 C0 3.35 0 1.7 0 0 Z " fill="#8E9196" transform="translate(109,339)"/>
<path d="M0 0 C1.98 0.495 1.98 0.495 4 1 C4 1.99 4 2.98 4 4 C2.68 3.67 1.36 3.34 0 3 C0 2.01 0 1.02 0 0 Z " fill="#9B9B9F" transform="translate(102,299)"/>
<path d="M0 0 C1.32 0.33 2.64 0.66 4 1 C3.67 2.32 3.34 3.64 3 5 C2.34 5 1.68 5 1 5 C0.67 3.35 0.34 1.7 0 0 Z " fill="#8B8F92" transform="translate(90,285)"/>
<path d="M0 0 C0.99 0.33 1.98 0.66 3 1 C2.34 2.32 1.68 3.64 1 5 C0.34 5 -0.32 5 -1 5 C-0.67 3.35 -0.34 1.7 0 0 Z " fill="#9EA0A3" transform="translate(415,255)"/>
<path d="M0 0 C1.98 0.66 3.96 1.32 6 2 C3 4 3 4 0.8125 3.625 C0.214375 3.41875 -0.38375 3.2125 -1 3 C-0.67 2.01 -0.34 1.02 0 0 Z " fill="#929597" transform="translate(424,248)"/>
<path d="M0 0 C1.65 0 3.3 0 5 0 C5 0.99 5 1.98 5 3 C2.03 2.505 2.03 2.505 -1 2 C-0.67 1.34 -0.34 0.68 0 0 Z " fill="#8D8F96" transform="translate(72,249)"/>
<path d="M0 0 C0.99 0.33 1.98 0.66 3 1 C2.67 1.99 2.34 2.98 2 4 C0.68 4 -0.64 4 -2 4 C-1.34 2.68 -0.68 1.36 0 0 Z " fill="#9C9D9F" transform="translate(80,245)"/>
<path d="M0 0 C2.475 0.495 2.475 0.495 5 1 C4.67 1.99 4.34 2.98 4 4 C2.68 3.34 1.36 2.68 0 2 C0 1.34 0 0.68 0 0 Z " fill="#989C9F" transform="translate(394,198)"/>
<path d="M0 0 C1.98 0.99 1.98 0.99 4 2 C3.67 2.99 3.34 3.98 3 5 C2.01 5 1.02 5 0 5 C0 3.35 0 1.7 0 0 Z " fill="#9A9C9F" transform="translate(108,168)"/>
<path d="M0 0 C0.66 0.33 1.32 0.66 2 1 C1.67 2.32 1.34 3.64 1 5 C0.01 5 -0.98 5 -2 5 C-1.125 1.125 -1.125 1.125 0 0 Z " fill="#93999B" transform="translate(117,145)"/>
<path d="M0 0 C0.99 0 1.98 0 3 0 C2.67 1.32 2.34 2.64 2 4 C1.01 4 0.02 4 -1 4 C-0.67 2.68 -0.34 1.36 0 0 Z " fill="#919596" transform="translate(150,117)"/>
<path d="M0 0 C0.99 0.33 1.98 0.66 3 1 C3 2.32 3 3.64 3 5 C2.01 5 1.02 5 0 5 C-0.5625 3.0625 -0.5625 3.0625 -1 1 C-0.67 0.67 -0.34 0.34 0 0 Z " fill="#86898C" transform="translate(341,107)"/>
<path d="M0 0 C1.32 0 2.64 0 4 0 C4 0.99 4 1.98 4 3 C2.68 3.33 1.36 3.66 0 4 C0 2.68 0 1.36 0 0 Z " fill="#999B9E" transform="translate(172,97)"/>
<path d="M0 0 C1.32 0 2.64 0 4 0 C4 0.99 4 1.98 4 3 C2.68 3.33 1.36 3.66 0 4 C0 2.68 0 1.36 0 0 Z " fill="#909699" transform="translate(190,91)"/>
<path d="M0 0 C1.65 0 3.3 0 5 0 C5 0.99 5 1.98 5 3 C3.35 3 1.7 3 0 3 C0 2.01 0 1.02 0 0 Z " fill="#9BA2A6" transform="translate(294,89)"/>
<path d="M0 0 C0.99 0.33 1.98 0.66 3 1 C3 2.32 3 3.64 3 5 C1.68 4.34 0.36 3.68 -1 3 C-0.67 2.01 -0.34 1.02 0 0 Z " fill="#A1A3A4" transform="translate(252,66)"/>
<path d="M0 0 C1.32 0.66 2.64 1.32 4 2 C3.67 2.66 3.34 3.32 3 4 C1.68 3.67 0.36 3.34 -1 3 C-0.67 2.01 -0.34 1.02 0 0 Z " fill="#8E8F91" transform="translate(246,430)"/>
<path d="M0 0 C0.99 0 1.98 0 3 0 C3 0.99 3 1.98 3 3 C1.68 3.33 0.36 3.66 -1 4 C-1 1 -1 1 0 0 Z " fill="#86888B" transform="translate(266,418)"/>
<path d="M0 0 C1.485 0.99 1.485 0.99 3 2 C3 2.99 3 3.98 3 5 C1.68 4.67 0.36 4.34 -1 4 C-0.67 2.68 -0.34 1.36 0 0 Z " fill="#929496" transform="translate(232,417)"/>
<path d="M0 0 C1.98 0.495 1.98 0.495 4 1 C3.67 1.99 3.34 2.98 3 4 C1.68 3.67 0.36 3.34 -1 3 C-0.67 2.01 -0.34 1.02 0 0 Z " fill="#9B9C9E" transform="translate(226,415)"/>
<path d="M0 0 C1.32 0.33 2.64 0.66 4 1 C4 1.99 4 2.98 4 4 C2.68 4 1.36 4 0 4 C0 2.68 0 1.36 0 0 Z " fill="#9A9C9E" transform="translate(214,411)"/>
<path d="M0 0 C0 1.32 0 2.64 0 4 C-1.32 4 -2.64 4 -4 4 C-4 3.01 -4 2.02 -4 1 C-2 0 -2 0 0 0 Z " fill="#9B9C9E" transform="translate(286,411)"/>
<path d="M0 0 C1.65 0 3.3 0 5 0 C5 0.99 5 1.98 5 3 C3.35 2.67 1.7 2.34 0 2 C0 1.34 0 0.68 0 0 Z " fill="#9CA0A0" transform="translate(207,410)"/>
<path d="M0 0 C1.32 0 2.64 0 4 0 C4 0.99 4 1.98 4 3 C2.35 3 0.7 3 -1 3 C-0.67 2.01 -0.34 1.02 0 0 Z " fill="#A0A7AA" transform="translate(295,408)"/>
<path d="M0 0 C1.65 0 3.3 0 5 0 C4.67 0.99 4.34 1.98 4 3 C2.68 3 1.36 3 0 3 C0 2.01 0 1.02 0 0 Z " fill="#9A9D9F" transform="translate(288,410)"/>
<path d="M0 0 C2.475 0.495 2.475 0.495 5 1 C5 1.66 5 2.32 5 3 C3.35 3 1.7 3 0 3 C0 2.01 0 1.02 0 0 Z " fill="#A3A5A8" transform="translate(201,408)"/>
<path d="M0 0 C2.475 0.495 2.475 0.495 5 1 C5 1.66 5 2.32 5 3 C3.35 3 1.7 3 0 3 C0 2.01 0 1.02 0 0 Z " fill="#909599" transform="translate(171,400)"/>
<path d="M0 0 C1.32 0 2.64 0 4 0 C4 0.99 4 1.98 4 3 C2.35 3 0.7 3 -1 3 C-0.67 2.01 -0.34 1.02 0 0 Z " fill="#909699" transform="translate(325,400)"/>
<path d="M0 0 C1.32 0.33 2.64 0.66 4 1 C4 1.99 4 2.98 4 4 C2.68 3.67 1.36 3.34 0 3 C0 2.01 0 1.02 0 0 Z " fill="#898B8C" transform="translate(166,397)"/>
<path d="M0 0 C0.99 0 1.98 0 3 0 C2.67 1.32 2.34 2.64 2 4 C1.01 4 0.02 4 -1 4 C-0.67 2.68 -0.34 1.36 0 0 Z " fill="#85898F" transform="translate(331,397)"/>
<path d="M0 0 C1.32 0.33 2.64 0.66 4 1 C4 1.99 4 2.98 4 4 C2.68 3.67 1.36 3.34 0 3 C0 2.01 0 1.02 0 0 Z " fill="#8C8F91" transform="translate(156,389)"/>
<path d="M0 0 C0.99 0 1.98 0 3 0 C3.33 1.32 3.66 2.64 4 4 C3.01 4 2.02 4 1 4 C0.67 2.68 0.34 1.36 0 0 Z " fill="#989B9D" transform="translate(152,384)"/>
<path d="M0 0 C0.99 0 1.98 0 3 0 C3.33 1.32 3.66 2.64 4 4 C2.68 4 1.36 4 0 4 C0 2.68 0 1.36 0 0 Z " fill="#8A8C8F" transform="translate(149,379)"/>
<path d="M0 0 C1.32 0.33 2.64 0.66 4 1 C4 1.99 4 2.98 4 4 C2.68 3.67 1.36 3.34 0 3 C0 2.01 0 1.02 0 0 Z " fill="#A2A8AB" transform="translate(358,358)"/>
<path d="M0 0 C0.99 0 1.98 0 3 0 C2.67 1.32 2.34 2.64 2 4 C1.01 4 0.02 4 -1 4 C-0.67 2.68 -0.34 1.36 0 0 Z " fill="#989B9B" transform="translate(139,358)"/>
<path d="M0 0 C0.99 0 1.98 0 3 0 C2.67 1.32 2.34 2.64 2 4 C1.01 4 0.02 4 -1 4 C-0.67 2.68 -0.34 1.36 0 0 Z " fill="#878B8E" transform="translate(382,351)"/>
<path d="M0 0 C1.32 0.33 2.64 0.66 4 1 C3.67 1.99 3.34 2.98 3 4 C2.01 4 1.02 4 0 4 C0 2.68 0 1.36 0 0 Z " fill="#7F8586" transform="translate(389,328)"/>
<path d="M0 0 C0.99 0 1.98 0 3 0 C2.67 1.65 2.34 3.3 2 5 C1.01 4.67 0.02 4.34 -1 4 C-0.67 2.68 -0.34 1.36 0 0 Z " fill="#9DA2A5" transform="translate(114,309)"/>
<path d="M0 0 C1.98 0.495 1.98 0.495 4 1 C4 1.99 4 2.98 4 4 C2.35 3.67 0.7 3.34 -1 3 C-0.67 2.01 -0.34 1.02 0 0 Z " fill="#8B8D95" transform="translate(108,301)"/>
<path d="M0 0 C0.99 0 1.98 0 3 0 C2.67 1.32 2.34 2.64 2 4 C1.01 4 0.02 4 -1 4 C-0.67 2.68 -0.34 1.36 0 0 Z " fill="#999C9E" transform="translate(395,299)"/>
<path d="M0 0 C1.32 0.33 2.64 0.66 4 1 C4 1.99 4 2.98 4 4 C2.68 4 1.36 4 0 4 C0 2.68 0 1.36 0 0 Z " fill="#8A8E91" transform="translate(97,295)"/>
<path d="M0 0 C0.99 0.33 1.98 0.66 3 1 C2.67 2.32 2.34 3.64 2 5 C1.01 4.67 0.02 4.34 -1 4 C-0.67 2.68 -0.34 1.36 0 0 Z " fill="#868D90" transform="translate(409,279)"/>
<path d="M0 0 C0.99 0 1.98 0 3 0 C2.67 1.65 2.34 3.3 2 5 C1.34 5 0.68 5 0 5 C0 3.35 0 1.7 0 0 Z " fill="#999FA0" transform="translate(410,273)"/>
<path d="M0 0 C0.99 0.33 1.98 0.66 3 1 C3 2.32 3 3.64 3 5 C2.01 5 1.02 5 0 5 C0 3.35 0 1.7 0 0 Z " fill="#8B9194" transform="translate(410,266)"/>
<path d="M0 0 C0.99 0 1.98 0 3 0 C2.67 1.32 2.34 2.64 2 4 C1.01 4 0.02 4 -1 4 C-0.67 2.68 -0.34 1.36 0 0 Z " fill="#949B9D" transform="translate(412,261)"/>
<path d="M0 0 C0.99 0.33 1.98 0.66 3 1 C3 2.32 3 3.64 3 5 C2.01 5 1.02 5 0 5 C0 3.35 0 1.7 0 0 Z " fill="#8B8D95" transform="translate(410,229)"/>
<path d="M0 0 C0.99 0.33 1.98 0.66 3 1 C3 2.32 3 3.64 3 5 C2.01 5 1.02 5 0 5 C0 3.35 0 1.7 0 0 Z " fill="#919699" transform="translate(410,223)"/>
<path d="M0 0 C0.66 0.33 1.32 0.66 2 1 C2 2.32 2 3.64 2 5 C0.68 4.67 -0.64 4.34 -2 4 C-1.34 2.68 -0.68 1.36 0 0 Z " fill="#87898A" transform="translate(90,216)"/>
<path d="M0 0 C0.99 0.33 1.98 0.66 3 1 C3 2.32 3 3.64 3 5 C2.01 5 1.02 5 0 5 C-0.5625 3.0625 -0.5625 3.0625 -1 1 C-0.67 0.67 -0.34 0.34 0 0 Z " fill="#A3A4A5" transform="translate(409,217)"/>
<path d="M0 0 C0.99 0 1.98 0 3 0 C2.67 1.32 2.34 2.64 2 4 C1.01 4 0.02 4 -1 4 C-0.67 2.68 -0.34 1.36 0 0 Z " fill="#A0A1A6" transform="translate(98,201)"/>
<path d="M0 0 C2.475 0.495 2.475 0.495 5 1 C3.625 2.5 3.625 2.5 2 4 C1.34 4 0.68 4 0 4 C0 2.68 0 1.36 0 0 Z " fill="#9DA0A1" transform="translate(102,198)"/>
<path d="M0 0 C0.99 0.33 1.98 0.66 3 1 C3 2.32 3 3.64 3 5 C2.01 5 1.02 5 0 5 C0 3.35 0 1.7 0 0 Z " fill="#95989A" transform="translate(388,156)"/>
<path d="M0 0 C1.32 0 2.64 0 4 0 C4 0.99 4 1.98 4 3 C2.68 3.33 1.36 3.66 0 4 C0 2.68 0 1.36 0 0 Z " fill="#8E9193" transform="translate(120,142)"/>
<path d="M0 0 C1.32 0.33 2.64 0.66 4 1 C4 1.99 4 2.98 4 4 C2.68 4 1.36 4 0 4 C0 2.68 0 1.36 0 0 Z " fill="#8D9093" transform="translate(371,139)"/>
<path d="M0 0 C1.32 0 2.64 0 4 0 C3.67 1.32 3.34 2.64 3 4 C2.01 4 1.02 4 0 4 C0 2.68 0 1.36 0 0 Z " fill="#9B9FA4" transform="translate(351,136)"/>
<path d="M0 0 C1.32 0.33 2.64 0.66 4 1 C4 1.99 4 2.98 4 4 C2.68 3.67 1.36 3.34 0 3 C0 2.01 0 1.02 0 0 Z " fill="#8E8F93" transform="translate(350,123)"/>
<path d="M0 0 C0.99 0 1.98 0 3 0 C2.67 1.32 2.34 2.64 2 4 C1.01 4 0.02 4 -1 4 C-0.67 2.68 -0.34 1.36 0 0 Z " fill="#9A9C9E" transform="translate(162,103)"/>
<path d="M0 0 C1.32 0 2.64 0 4 0 C4 1.32 4 2.64 4 4 C2.68 3.67 1.36 3.34 0 3 C0 2.01 0 1.02 0 0 Z " fill="#939598" transform="translate(330,100)"/>
<path d="M0 0 C2.475 0.495 2.475 0.495 5 1 C5 1.66 5 2.32 5 3 C3.35 3 1.7 3 0 3 C0 2.01 0 1.02 0 0 Z " fill="#969E9F" transform="translate(313,93)"/>
<path d="M0 0 C1.32 0 2.64 0 4 0 C3.67 1.32 3.34 2.64 3 4 C2.01 3.67 1.02 3.34 0 3 C0 2.01 0 1.02 0 0 Z " fill="#9DA19F" transform="translate(307,91)"/>
<path d="M0 0 C1.65 0 3.3 0 5 0 C4.67 0.99 4.34 1.98 4 3 C2.68 3 1.36 3 0 3 C0 2.01 0 1.02 0 0 Z " fill="#8D9094" transform="translate(183,93)"/>
<path d="M0 0 C0.99 0.33 1.98 0.66 3 1 C3 1.66 3 2.32 3 3 C1.68 3.33 0.36 3.66 -1 4 C-1.33 3.01 -1.66 2.02 -2 1 C-1.34 0.67 -0.68 0.34 0 0 Z " fill="#A6A9AA" transform="translate(197,90)"/>
<path d="M0 0 C1.32 0 2.64 0 4 0 C4 0.99 4 1.98 4 3 C2.35 3 0.7 3 -1 3 C-0.67 2.01 -0.34 1.02 0 0 Z " fill="#979A9E" transform="translate(202,89)"/>
<path d="M0 0 C0.99 0 1.98 0 3 0 C2.67 1.32 2.34 2.64 2 4 C1.01 4 0.02 4 -1 4 C-0.67 2.68 -0.34 1.36 0 0 Z " fill="#A3A6A8" transform="translate(209,87)"/>
<path d="M0 0 C1.32 0.33 2.64 0.66 4 1 C4 1.99 4 2.98 4 4 C2.68 4 1.36 4 0 4 C0 2.68 0 1.36 0 0 Z " fill="#8A9095" transform="translate(289,87)"/>
<path d="M0 0 C1.32 0.33 2.64 0.66 4 1 C4 1.99 4 2.98 4 4 C2.68 3.67 1.36 3.34 0 3 C0 2.01 0 1.02 0 0 Z " fill="#939697" transform="translate(265,79)"/>
<path d="M0 0 C1.32 0.33 2.64 0.66 4 1 C4 1.99 4 2.98 4 4 C2.68 3.67 1.36 3.34 0 3 C0 2.01 0 1.02 0 0 Z " fill="#9B9D9F" transform="translate(255,71)"/>
<path d="M0 0 C0.99 0 1.98 0 3 0 C3 1.32 3 2.64 3 4 C1.68 4 0.36 4 -1 4 C-0.67 2.68 -0.34 1.36 0 0 Z " fill="#909393" transform="translate(242,71)"/>
<path d="M0 0 C0.66 0.33 1.32 0.66 2 1 C1.67 2.32 1.34 3.64 1 5 C0.34 5 -0.32 5 -1 5 C-1.33 3.68 -1.66 2.36 -2 1 C-1.34 0.67 -0.68 0.34 0 0 Z " fill="#8E8F92" transform="translate(250,435)"/>
<path d="M0 0 C0.66 0 1.32 0 2 0 C1.67 1.32 1.34 2.64 1 4 C0.01 4 -0.98 4 -2 4 C-1.34 2.68 -0.68 1.36 0 0 Z " fill="#999B9D" transform="translate(257,425)"/>
<path d="M0 0 C0.99 0 1.98 0 3 0 C2.67 1.32 2.34 2.64 2 4 C1.01 3.67 0.02 3.34 -1 3 C-0.67 2.01 -0.34 1.02 0 0 Z " fill="#97999C" transform="translate(277,413)"/>
<path d="M0 0 C1.32 0.33 2.64 0.66 4 1 C4 1.99 4 2.98 4 4 C2.68 4 1.36 4 0 4 C0 2.68 0 1.36 0 0 Z " fill="#979EA1" transform="translate(183,404)"/>
<path d="M0 0 C0.99 0 1.98 0 3 0 C2.67 1.32 2.34 2.64 2 4 C1.01 3.67 0.02 3.34 -1 3 C-0.67 2.01 -0.34 1.02 0 0 Z " fill="#9E9FA2" transform="translate(351,374)"/>
<path d="M0 0 C1.32 0.33 2.64 0.66 4 1 C4 1.99 4 2.98 4 4 C3.01 4 2.02 4 1 4 C0.67 2.68 0.34 1.36 0 0 Z " fill="#898D93" transform="translate(146,373)"/>
<path d="M0 0 C2.475 0.495 2.475 0.495 5 1 C4.67 1.66 4.34 2.32 4 3 C2.68 3 1.36 3 0 3 C0 2.01 0 1.02 0 0 Z " fill="#94999A" transform="translate(131,359)"/>
<path d="M0 0 C0.99 0 1.98 0 3 0 C2.67 1.65 2.34 3.3 2 5 C1.34 4.67 0.68 4.34 0 4 C0 2.68 0 1.36 0 0 Z " fill="#80838B" transform="translate(108,327)"/>
<path d="M0 0 C0.66 0 1.32 0 2 0 C1.67 1.65 1.34 3.3 1 5 C0.34 5 -0.32 5 -1 5 C-0.67 3.35 -0.34 1.7 0 0 Z " fill="#7A7D83" transform="translate(110,321)"/>
<path d="M0 0 C0.99 0 1.98 0 3 0 C2.67 1.65 2.34 3.3 2 5 C1.34 4.67 0.68 4.34 0 4 C0 2.68 0 1.36 0 0 Z " fill="#929498" transform="translate(384,310)"/>
<path d="M0 0 C1.32 0.33 2.64 0.66 4 1 C4 1.99 4 2.98 4 4 C3.01 4 2.02 4 1 4 C0.67 2.68 0.34 1.36 0 0 Z " fill="#82878A" transform="translate(113,304)"/>
<path d="M0 0 C1.32 0 2.64 0 4 0 C4 0.99 4 1.98 4 3 C3.01 3.33 2.02 3.66 1 4 C0.67 2.68 0.34 1.36 0 0 Z " fill="#8B8F92" transform="translate(399,296)"/>
<path d="M0 0 C0.99 0 1.98 0 3 0 C3 1.32 3 2.64 3 4 C1.68 3.67 0.36 3.34 -1 3 C-0.67 2.01 -0.34 1.02 0 0 Z " fill="#888B8F" transform="translate(404,291)"/>
<path d="M0 0 C1.32 0.33 2.64 0.66 4 1 C3.67 1.99 3.34 2.98 3 4 C2.01 3.67 1.02 3.34 0 3 C0 2.01 0 1.02 0 0 Z " fill="#7C7E82" transform="translate(93,291)"/>
<path d="M0 0 C0.99 0 1.98 0 3 0 C2.67 1.65 2.34 3.3 2 5 C1.34 4.67 0.68 4.34 0 4 C0 2.68 0 1.36 0 0 Z " fill="#878B8D" transform="translate(89,279)"/>
<path d="M0 0 C0.99 0 1.98 0 3 0 C3 0.99 3 1.98 3 3 C1.68 3.33 0.36 3.66 -1 4 C-0.67 2.68 -0.34 1.36 0 0 Z " fill="#8D9093" transform="translate(419,251)"/>
<path d="M0 0 C2.475 0.495 2.475 0.495 5 1 C4.01 2.485 4.01 2.485 3 4 C2.01 3.34 1.02 2.68 0 2 C0 1.34 0 0.68 0 0 Z " fill="#8A9091" transform="translate(418,246)"/>
<path d="M0 0 C1.98 0.99 1.98 0.99 4 2 C4 2.66 4 3.32 4 4 C2.68 4 1.36 4 0 4 C0 2.68 0 1.36 0 0 Z " fill="#8A8E8E" transform="translate(414,241)"/>
<path d="M0 0 C1.32 0.33 2.64 0.66 4 1 C4 1.99 4 2.98 4 4 C2.68 3.67 1.36 3.34 0 3 C0 2.01 0 1.02 0 0 Z " fill="#878A8B" transform="translate(399,201)"/>
<path d="M0 0 C0.66 0 1.32 0 2 0 C2 1.32 2 2.64 2 4 C0.68 4 -0.64 4 -2 4 C-1.34 2.68 -0.68 1.36 0 0 Z " fill="#929598" transform="translate(115,192)"/>
<path d="M0 0 C0.99 0.33 1.98 0.66 3 1 C2.67 2.32 2.34 3.64 2 5 C1.34 5 0.68 5 0 5 C0 3.35 0 1.7 0 0 Z " fill="#93949C" transform="translate(384,186)"/>
<path d="M0 0 C0.66 0 1.32 0 2 0 C2 1.65 2 3.3 2 5 C1.01 4.67 0.02 4.34 -1 4 C-0.67 2.68 -0.34 1.36 0 0 Z " fill="#8E8F94" transform="translate(112,180)"/>
<path d="M0 0 C0.99 0 1.98 0 3 0 C2.67 1.65 2.34 3.3 2 5 C1.34 4.67 0.68 4.34 0 4 C0 2.68 0 1.36 0 0 Z " fill="#95979A" transform="translate(388,175)"/>
<path d="M0 0 C0.66 0.33 1.32 0.66 2 1 C1.67 2.32 1.34 3.64 1 5 C0.01 4.67 -0.98 4.34 -2 4 C-1.34 2.68 -0.68 1.36 0 0 Z " fill="#888B8E" transform="translate(113,150)"/>
<path d="M0 0 C1.32 0 2.64 0 4 0 C3.67 0.99 3.34 1.98 3 3 C1.68 3 0.36 3 -1 3 C-0.67 2.01 -0.34 1.02 0 0 Z " fill="#9E9FA0" transform="translate(359,139)"/>
<path d="M0 0 C0.99 0.33 1.98 0.66 3 1 C2.67 1.99 2.34 2.98 2 4 C1.01 4 0.02 4 -1 4 C-0.67 2.68 -0.34 1.36 0 0 Z " fill="#949899" transform="translate(127,139)"/>
<path d="M0 0 C1.65 0 3.3 0 5 0 C5 0.99 5 1.98 5 3 C3.68 3 2.36 3 1 3 C0.67 2.01 0.34 1.02 0 0 Z " fill="#8D8E94" transform="translate(137,139)"/>
<path d="M0 0 C0.99 0 1.98 0 3 0 C3.33 0.99 3.66 1.98 4 3 C2.68 3.33 1.36 3.66 0 4 C0 2.68 0 1.36 0 0 Z " fill="#919196" transform="translate(146,135)"/>
<path d="M0 0 C0.66 0.33 1.32 0.66 2 1 C2 2.32 2 3.64 2 5 C1.01 5 0.02 5 -1 5 C-0.67 3.35 -0.34 1.7 0 0 Z " fill="#838789" transform="translate(148,122)"/>
<path d="M0 0 C0.99 0 1.98 0 3 0 C2.67 1.32 2.34 2.64 2 4 C1.01 4 0.02 4 -1 4 C-0.67 2.68 -0.34 1.36 0 0 Z " fill="#84898C" transform="translate(153,112)"/>
<path d="M0 0 C2.475 0.495 2.475 0.495 5 1 C5 1.66 5 2.32 5 3 C3.35 2.67 1.7 2.34 0 2 C0 1.34 0 0.68 0 0 Z " fill="#8C9092" transform="translate(282,86)"/>
<path d="M0 0 C1.32 0 2.64 0 4 0 C3.67 0.99 3.34 1.98 3 3 C1.68 3 0.36 3 -1 3 C-0.67 2.01 -0.34 1.02 0 0 Z " fill="#959799" transform="translate(226,82)"/>
<path d="M0 0 C0.99 0.33 1.98 0.66 3 1 C3 1.99 3 2.98 3 4 C1.68 4 0.36 4 -1 4 C-0.67 2.68 -0.34 1.36 0 0 Z " fill="#8F9394" transform="translate(261,75)"/>
<path d="M0 0 C0.99 0 1.98 0 3 0 C2.67 1.32 2.34 2.64 2 4 C1.01 4 0.02 4 -1 4 C-0.67 2.68 -0.34 1.36 0 0 Z " fill="#8D8D8E" transform="translate(246,66)"/>
<path d="M0 0 C2 2 2 2 2 5 C0.68 4.67 -0.64 4.34 -2 4 C-1.34 2.68 -0.68 1.36 0 0 Z " fill="#939393" transform="translate(250,60)"/>
<path d="M0 0 C1.65 0 3.3 0 5 0 C5 0.66 5 1.32 5 2 C3.68 2.33 2.36 2.66 1 3 C0.67 2.01 0.34 1.02 0 0 Z " fill="#7D7E88" transform="translate(270,416)"/>
<path d="M0 0 C1.32 0.33 2.64 0.66 4 1 C3.67 1.99 3.34 2.98 3 4 C2.01 3.67 1.02 3.34 0 3 C0 2.01 0 1.02 0 0 Z " fill="#8F9295" transform="translate(220,413)"/>
<path d="M0 0 C0 0.99 0 1.98 0 3 C-1.32 3.33 -2.64 3.66 -4 4 C-4 3.01 -4 2.02 -4 1 C-2 0 -2 0 0 0 Z " fill="#9B9CA0" transform="translate(317,404)"/>
<path d="M0 0 C1.32 0 2.64 0 4 0 C4 0.99 4 1.98 4 3 C2.68 3 1.36 3 0 3 C0 2.01 0 1.02 0 0 Z " fill="#7D8183" transform="translate(189,406)"/>
<path d="M0 0 C1.32 0 2.64 0 4 0 C3.67 0.99 3.34 1.98 3 3 C1.68 2.67 0.36 2.34 -1 2 C-0.67 1.34 -0.34 0.68 0 0 Z " fill="#95999A" transform="translate(365,359)"/>
<path d="M0 0 C0.99 0 1.98 0 3 0 C3 1.32 3 2.64 3 4 C2.01 4 1.02 4 0 4 C0 2.68 0 1.36 0 0 Z " fill="#767778" transform="translate(388,340)"/>
<path d="M0 0 C0.66 0 1.32 0 2 0 C1.67 1.65 1.34 3.3 1 5 C0.34 4.67 -0.32 4.34 -1 4 C-0.67 2.68 -0.34 1.36 0 0 Z " fill="#848A8C" transform="translate(112,315)"/>
<path d="M0 0 C1.32 0 2.64 0 4 0 C4 0.99 4 1.98 4 3 C2.68 3 1.36 3 0 3 C0 2.01 0 1.02 0 0 Z " fill="#979A9C" transform="translate(388,302)"/>
<path d="M0 0 C1.9375 0.375 1.9375 0.375 4 1 C4.33 1.66 4.66 2.32 5 3 C3.35 3 1.7 3 0 3 C0 2.01 0 1.02 0 0 Z " fill="#7A7C81" transform="translate(78,251)"/>
<path d="M0 0 C1.32 0 2.64 0 4 0 C4 0.99 4 1.98 4 3 C2.68 3 1.36 3 0 3 C0 2.01 0 1.02 0 0 Z " fill="#858A90" transform="translate(108,196)"/>
<path d="M0 0 C0.99 0 1.98 0 3 0 C3 1.32 3 2.64 3 4 C2.01 4 1.02 4 0 4 C0 2.68 0 1.36 0 0 Z " fill="#898A8E" transform="translate(384,193)"/>
<path d="M0 0 C0.99 0 1.98 0 3 0 C3 1.32 3 2.64 3 4 C2.01 4 1.02 4 0 4 C0 2.68 0 1.36 0 0 Z " fill="#808386" transform="translate(386,181)"/>
<path d="M0 0 C0.66 0.33 1.32 0.66 2 1 C2 2.32 2 3.64 2 5 C1.01 4.67 0.02 4.34 -1 4 C-0.67 2.68 -0.34 1.36 0 0 Z " fill="#8C8C8F" transform="translate(110,174)"/>
<path d="M0 0 C1.32 0 2.64 0 4 0 C4 0.99 4 1.98 4 3 C2.68 3 1.36 3 0 3 C0 2.01 0 1.02 0 0 Z " fill="#969A9B" transform="translate(365,139)"/>
<path d="M0 0 C1.32 0 2.64 0 4 0 C4 0.99 4 1.98 4 3 C2.68 3 1.36 3 0 3 C0 2.01 0 1.02 0 0 Z " fill="#999A9C" transform="translate(132,139)"/>
<path d="M0 0 C0.99 0 1.98 0 3 0 C3 1.32 3 2.64 3 4 C2.01 4 1.02 4 0 4 C0 2.68 0 1.36 0 0 Z " fill="#878B8F" transform="translate(352,129)"/>
<path d="M0 0 C1.32 0 2.64 0 4 0 C4 0.99 4 1.98 4 3 C2.68 3 1.36 3 0 3 C0 2.01 0 1.02 0 0 Z " fill="#868A8A" transform="translate(214,86)"/>
<path d="M0 0 C1.32 0 2.64 0 4 0 C4 0.99 4 1.98 4 3 C2.68 3 1.36 3 0 3 C0 2.01 0 1.02 0 0 Z " fill="#8F9196" transform="translate(220,84)"/>
<path d="M0 0 C1.32 0 2.64 0 4 0 C4 0.99 4 1.98 4 3 C2.35 2.67 0.7 2.34 -1 2 C-0.67 1.34 -0.34 0.68 0 0 Z " fill="#8B8F90" transform="translate(271,82)"/>
<path d="M0 0 C0.99 0.33 1.98 0.66 3 1 C3 1.99 3 2.98 3 4 C1.68 3.67 0.36 3.34 -1 3 C-0.67 2.01 -0.34 1.02 0 0 Z " fill="#71767A" transform="translate(178,402)"/>
<path d="M0 0 C1.32 0 2.64 0 4 0 C3.67 0.99 3.34 1.98 3 3 C2.01 3 1.02 3 0 3 C0 2.01 0 1.02 0 0 Z " fill="#8A8B8D" transform="translate(371,358)"/>
<path d="M0 0 C1.32 0 2.64 0 4 0 C4 0.99 4 1.98 4 3 C2.68 2.67 1.36 2.34 0 2 C0 1.34 0 0.68 0 0 Z " fill="#818487" transform="translate(125,358)"/>
<path d="M0 0 C0.99 0.99 1.98 1.98 3 3 C1.68 3.33 0.36 3.66 -1 4 C-0.67 2.68 -0.34 1.36 0 0 Z " fill="#929598" transform="translate(389,321)"/>
<path d="M0 0 C0.99 0 1.98 0 3 0 C3 1.32 3 2.64 3 4 C2.01 3.67 1.02 3.34 0 3 C0 2.01 0 1.02 0 0 Z " fill="#7F8283" transform="translate(386,316)"/>
<path d="M0 0 C0.99 0 1.98 0 3 0 C2.67 1.32 2.34 2.64 2 4 C1.34 4 0.68 4 0 4 C0 2.68 0 1.36 0 0 Z " fill="#76787C" transform="translate(384,304)"/>
<path d="M0 0 C0.99 0 1.98 0 3 0 C3 1.32 3 2.64 3 4 C2.01 3.67 1.02 3.34 0 3 C0 2.01 0 1.02 0 0 Z " fill="#808384" transform="translate(83,255)"/>
<path d="M0 0 C0.66 0 1.32 0 2 0 C2 1.32 2 2.64 2 4 C1.01 4 0.02 4 -1 4 C-0.67 2.68 -0.34 1.36 0 0 Z " fill="#7A7B7C" transform="translate(84,241)"/>
<path d="M0 0 C0.99 0 1.98 0 3 0 C3 1.32 3 2.64 3 4 C2.01 3.67 1.02 3.34 0 3 C0 2.01 0 1.02 0 0 Z " fill="#7D8285" transform="translate(404,206)"/>
<path d="M0 0 C1.32 0 2.64 0 4 0 C3.67 0.99 3.34 1.98 3 3 C2.01 3 1.02 3 0 3 C0 2.01 0 1.02 0 0 Z " fill="#818485" transform="translate(93,206)"/>
<path d="M0 0 C0.99 0.33 1.98 0.66 3 1 C3 1.99 3 2.98 3 4 C2.01 4 1.02 4 0 4 C0 2.68 0 1.36 0 0 Z " fill="#818183" transform="translate(386,151)"/>
<path d="M0 0 C0.99 0.33 1.98 0.66 3 1 C3 1.99 3 2.98 3 4 C2.01 4 1.02 4 0 4 C0 2.68 0 1.36 0 0 Z " fill="#81858A" transform="translate(345,112)"/>
<path d="M0 0 C0.99 0 1.98 0 3 0 C3 0.99 3 1.98 3 3 C1.68 3 0.36 3 -1 3 C-0.67 2.01 -0.34 1.02 0 0 Z " fill="#828385" transform="translate(167,100)"/>
<path d="M0 0 C1.32 0 2.64 0 4 0 C4 0.99 4 1.98 4 3 C2.68 2.67 1.36 2.34 0 2 C0 1.34 0 0.68 0 0 Z " fill="#858789" transform="translate(319,95)"/>
<path d="M0 0 C1.32 0 2.64 0 4 0 C3.67 0.99 3.34 1.98 3 3 C2.01 3 1.02 3 0 3 C0 2.01 0 1.02 0 0 Z " fill="#838384" transform="translate(177,95)"/>
<path d="M0 0 C0.99 0 1.98 0 3 0 C2.67 1.32 2.34 2.64 2 4 C1.01 3.01 0.02 2.02 -1 1 C-0.67 0.67 -0.34 0.34 0 0 Z " fill="#939596" transform="translate(277,84)"/>
<path d="M0 0 C1.32 0 2.64 0 4 0 C4 0.66 4 1.32 4 2 C2.68 2.33 1.36 2.66 0 3 C0 2.01 0 1.02 0 0 Z " fill="#777A7B" transform="translate(319,403)"/>
<path d="M0 0 C1.32 0 2.64 0 4 0 C4 0.99 4 1.98 4 3 C2.68 2.67 1.36 2.34 0 2 C0 1.34 0 0.68 0 0 Z " fill="#868D8F" transform="translate(301,91)"/>
</svg>
